<?xml version="1.0" standalone="no"?>
<!DOCTYPE svg PUBLIC "-//W3C//DTD SVG 20010904//EN"
 "http://www.w3.org/TR/2001/REC-SVG-20010904/DTD/svg10.dtd">
<svg version="1.0" xmlns="http://www.w3.org/2000/svg"
 width="656.000000pt" height="656.000000pt" viewBox="0 0 656.000000 656.000000"
 preserveAspectRatio="xMidYMid meet">
<metadata>
Created by potrace 1.14, written by Peter Selinger 2001-2017
</metadata>
<g transform="translate(0.000000,656.000000) scale(0.100000,-0.100000)"
fill="#000000" stroke="none">
<path d="M478 6473 l102 -4 0 -144 0 -145 -102 -2 c-57 -1 -80 -3 -51 -5 l52
-4 4 -52 3 -52 2 53 2 52 50 0 50 0 0 49 0 50 53 4 52 3 -52 2 -53 2 0 44 0
45 53 4 52 3 -52 2 -53 2 0 44 0 45 53 4 c28 2 -20 3 -108 3 -94 0 -118 -2
-57 -3z"/>
<path d="M1778 6473 l102 -4 0 -94 0 -95 -100 0 -100 0 0 -50 0 -50 -100 0
-100 0 0 -50 0 -50 -50 0 -50 0 0 -100 0 -100 -50 0 -50 0 0 -50 0 -50 -50 0
-50 0 0 -50 0 -50 -50 0 -50 0 2 -107 2 -108 3 103 4 102 94 0 95 0 0 -95 0
-95 -50 0 -50 0 2 -102 c1 -57 3 -82 5 -55 l4 47 45 0 44 0 1 -352 c1 -194 4
-341 6 -326 3 20 11 28 31 31 l27 4 -27 2 c-21 1 -28 6 -28 20 0 14 8 21 28
24 l27 4 -27 2 c-26 1 -28 4 -28 46 l0 45 45 0 45 0 2 -97 c1 -54 3 -77 5 -50
l4 47 50 0 49 0 0 50 0 50 44 0 45 0 4 -52 3 -53 2 53 2 52 45 0 45 0 0 -95 0
-95 -50 0 -50 0 0 -150 0 -150 -50 0 -50 0 0 -50 0 -50 -95 0 -95 0 0 45 0 45
50 0 c46 0 50 2 50 24 0 18 7 26 23 29 l22 4 -22 2 c-16 1 -23 7 -23 20 0 12
8 21 23 24 12 2 -13 5 -55 6 l-78 1 0 -450 0 -450 -95 0 -95 0 0 44 0 45 53 4
52 3 -57 2 -58 2 0 -300 0 -300 -150 0 -150 0 2 -107 c1 -60 3 -84 5 -55 l4
52 44 0 c40 0 44 -2 48 -27 l4 -28 2 28 c2 38 38 38 44 0 l4 -28 2 28 c2 38
38 38 44 0 l4 -28 2 28 c1 20 6 27 20 27 14 0 21 -8 24 -27 l4 -28 2 28 c1 20
6 27 21 27 20 0 20 -7 20 -445 l0 -445 -50 0 c-47 0 -50 -2 -50 -25 0 -37 -37
-35 -43 3 l-4 27 -2 -27 c-2 -38 -41 -41 -41 -3 l0 25 -155 0 -155 0 0 -25 c0
-22 -4 -25 -35 -25 -31 0 -35 3 -35 25 0 14 -4 25 -10 25 -6 0 -10 38 -10 95
l0 95 100 0 100 0 0 100 0 100 95 0 94 0 4 -102 3 -103 2 108 2 107 -100 0
-100 0 0 200 0 200 -50 0 -50 0 0 45 0 45 53 1 c28 1 40 4 24 6 -34 5 -38 40
-4 46 l22 4 -22 2 c-34 2 -32 41 2 41 l25 0 0 100 0 100 94 0 95 0 4 -52 3
-53 2 58 2 57 -100 0 -100 0 0 95 0 95 103 2 c56 1 78 3 50 5 l-53 4 0 44 0
44 53 4 52 3 -52 2 -53 2 0 44 0 45 53 4 52 3 -52 2 -53 2 0 44 0 45 53 4 52
3 -52 2 -53 2 0 44 0 45 53 4 52 3 -57 2 -58 2 0 -200 0 -200 -50 0 -50 0 0
-150 0 -150 -50 0 -50 0 2 -57 2 -58 3 53 4 52 45 0 44 0 0 -45 c0 -41 -2 -45
-25 -45 -23 0 -25 -3 -25 -50 0 -47 -2 -50 -25 -50 l-25 0 0 -150 0 -150 -95
0 -95 0 0 44 0 45 53 4 52 3 -52 2 -53 2 0 44 0 45 53 4 52 3 -52 2 -53 2 0
200 0 200 -49 0 -50 0 -4 53 c-2 28 -4 -129 -5 -350 l-2 -403 -95 0 -95 0 0
44 0 45 53 4 52 3 -52 2 -53 2 -3 1603 c-1 881 -2 450 -3 -958 0 -1408 1
-2536 3 -2507 l4 52 45 0 44 0 2 -97 c1 -54 3 -77 5 -50 l4 47 45 0 44 0 2
-102 c1 -57 3 -79 5 -51 l4 53 45 0 44 0 0 -94 0 -95 -53 -4 c-28 -2 -6 -4 51
-5 l102 -2 0 -95 0 -95 -100 0 -100 0 0 -25 c0 -23 -3 -25 -50 -25 -47 0 -50
-2 -50 -25 0 -23 -3 -25 -50 -25 l-50 0 2 -52 2 -53 3 48 4 47 44 0 44 0 4
-47 3 -48 2 48 2 47 44 0 45 0 4 -48 c2 -26 4 -3 5 51 l2 97 95 0 95 0 0 -95
0 -95 405 0 405 0 0 95 0 95 95 0 94 0 4 -97 3 -98 2 98 2 97 95 0 95 0 0 -95
0 -95 200 0 200 0 1 48 c0 26 1 67 3 92 1 25 3 69 4 98 l2 52 44 0 45 0 4 -52
3 -53 2 53 2 52 45 0 45 0 0 -145 0 -145 105 0 105 0 0 100 0 100 -50 0 -50 0
0 44 0 45 48 4 47 3 -47 2 -48 2 0 44 0 45 53 4 c28 2 6 4 -50 5 l-103 2 0 95
0 95 100 0 100 0 0 50 0 50 45 0 45 0 0 -97 0 -98 50 3 50 4 0 -104 0 -103 50
3 50 4 2 -109 c1 -59 3 -84 5 -55 l4 52 44 0 44 0 4 -52 3 -53 2 53 2 52 53 2
c37 1 43 2 18 5 -29 4 -32 7 -28 29 3 20 0 24 -19 24 -36 0 -33 37 4 43 24 4
24 4 -6 6 l-34 1 4 50 3 50 -47 0 -48 0 0 44 0 45 48 4 47 3 -53 2 -54 2 4 50
3 50 -47 0 -48 0 0 44 0 45 53 4 c42 3 37 4 -25 5 -70 2 -78 4 -78 21 0 12 8
21 23 24 l22 4 -22 2 c-35 2 -31 39 5 44 15 2 3 5 -25 6 l-53 1 0 50 0 50 -50
0 -50 0 0 44 0 45 53 4 52 3 -51 2 -51 2 -7 90 c-4 49 -5 94 -1 100 3 5 -1 10
-9 10 -9 0 -16 5 -16 10 0 6 6 10 13 10 9 0 8 3 -2 9 -8 5 -9 10 -2 12 9 3 16
79 20 217 1 31 2 32 46 32 l45 0 0 -56 c0 -36 5 -61 15 -70 8 -9 15 -11 15 -5
0 6 5 11 10 11 6 0 11 -17 11 -37 1 -24 3 -29 6 -16 3 15 12 23 24 23 15 0 19
-7 19 -31 0 -17 7 -37 15 -45 8 -9 15 -11 15 -5 0 6 5 11 10 11 6 0 10 -9 10
-21 0 -11 7 -27 15 -35 8 -9 15 -11 15 -5 0 6 5 11 10 11 6 0 11 -19 11 -42 2
-30 3 -35 6 -16 3 20 10 28 24 28 16 0 19 -8 20 -47 1 -27 4 -38 6 -25 6 32
43 30 43 -3 0 -23 3 -25 50 -25 l50 0 0 -47 0 -48 50 3 50 4 2 -59 2 -58 3 52
4 53 45 0 44 0 0 -51 c0 -29 4 -48 9 -44 6 3 28 3 50 -1 l40 -6 4 -52 3 -51 2
53 2 52 45 0 45 0 0 -50 0 -50 50 0 50 0 0 -145 0 -145 -50 0 -50 0 2 -107 c1
-60 3 -85 5 -57 l4 51 89 7 c49 4 94 5 100 1 6 -4 10 12 10 44 l0 51 44 0 45
0 4 -52 c2 -29 4 -7 5 50 l2 102 95 0 95 0 0 -200 0 -200 55 0 55 0 0 50 0 50
44 0 c41 0 45 -2 49 -27 l4 -28 2 28 c1 20 6 27 21 27 17 0 20 -7 21 -47 1
-27 4 -38 6 -26 3 15 12 23 24 23 18 0 19 -9 21 -122 1 -68 3 -102 5 -75 l4
47 45 0 44 0 0 -45 0 -45 100 0 100 0 1 48 c0 26 0 68 -1 95 -1 47 -1 47 32
47 18 0 63 3 101 7 l67 6 2 -104 2 -104 3 98 4 97 94 0 95 0 0 -95 0 -95 455
0 455 0 0 45 0 45 44 0 45 0 4 -47 c2 -27 4 -4 5 50 l2 97 95 0 94 0 4 -97 3
-98 2 98 2 97 95 0 95 0 0 -95 0 -95 100 0 100 0 0 500 0 500 -95 0 -95 0 0
95 0 94 98 4 97 3 -97 2 -98 2 0 95 0 94 98 4 c53 1 8 4 -100 5 l-198 2 0 95
0 94 103 4 102 3 -102 2 -103 2 0 95 0 94 103 4 102 3 -102 2 -103 2 0 95 0
95 100 0 100 0 0 100 0 99 98 4 97 3 -97 2 -98 2 0 95 0 94 98 4 97 3 -97 2
-98 2 0 95 0 94 98 4 97 3 -97 2 -98 2 0 95 0 94 98 4 97 3 -97 2 -98 2 0 95
0 94 98 4 97 3 -97 2 -98 2 0 95 0 94 98 4 97 3 -97 2 -98 2 0 95 0 94 98 4
97 3 -97 2 -98 2 0 95 0 94 98 4 c53 1 8 4 -100 5 l-198 2 0 195 0 195 198 3
197 2 -197 3 -198 2 0 195 0 195 198 3 197 2 -197 3 -198 2 0 195 0 195 198 3
197 2 -197 3 -198 2 0 195 0 195 198 2 c108 1 153 4 100 5 l-98 4 0 94 0 94
98 4 97 3 -97 2 -98 2 0 95 0 94 98 4 97 3 -97 2 -98 2 0 95 0 94 98 4 97 3
-97 2 -98 2 0 95 0 94 98 4 97 3 -97 2 -98 2 0 95 0 94 98 4 97 3 -97 2 -98 2
0 95 0 94 98 4 c53 1 -647 4 -1555 5 l-1653 2 0 -100 0 -100 -50 0 -50 0 0
-50 0 -50 -50 0 -50 0 0 -50 0 -50 -100 0 -100 0 0 -50 0 -50 -50 0 c-47 0
-50 -2 -50 -25 0 -20 -5 -25 -25 -25 -20 0 -25 -5 -25 -25 l0 -25 -270 0 -270
0 0 100 0 100 -50 0 -50 0 0 44 0 45 48 4 47 3 -47 2 -48 2 0 45 0 45 50 0 50
0 0 100 0 100 203 3 c111 1 18 3 -208 3 -225 0 -364 -2 -307 -3z m302 -98 l0
-95 -95 0 -95 0 0 95 0 95 95 0 95 0 0 -95z m1200 50 l0 -45 -45 0 -45 0 0 45
0 45 45 0 45 0 0 -45z m200 -50 l0 -95 -95 0 -95 0 0 95 0 95 95 0 95 0 0 -95z
m200 0 l0 -95 -95 0 -95 0 0 95 0 95 95 0 95 0 0 -95z m200 0 l0 -95 -95 0
-95 0 0 95 0 95 95 0 95 0 0 -95z m200 0 l0 -95 -95 0 -95 0 0 95 0 95 95 0
95 0 0 -95z m100 50 l0 -45 -45 0 -45 0 0 45 0 45 45 0 45 0 0 -45z m100 0 l0
-45 -45 0 -45 0 0 45 0 45 45 0 45 0 0 -45z m200 -50 l0 -95 -95 0 -95 0 0 95
0 95 95 0 95 0 0 -95z m200 0 l0 -95 -95 0 -95 0 0 95 0 95 95 0 95 0 0 -95z
m200 0 l0 -95 -95 0 -95 0 0 95 0 95 95 0 95 0 0 -95z m200 0 l0 -95 -95 0
-95 0 0 95 0 95 95 0 95 0 0 -95z m200 0 l0 -95 -95 0 -95 0 0 95 0 95 95 0
95 0 0 -95z m200 0 l0 -95 -95 0 -95 0 0 95 0 95 95 0 95 0 0 -95z m200 0 l0
-95 -95 0 -95 0 0 95 0 95 95 0 95 0 0 -95z m400 -100 l0 -195 -195 0 -195 0
0 195 0 195 195 0 195 0 0 -195z m200 100 l0 -95 -95 0 -95 0 0 95 0 95 95 0
95 0 0 -95z m-3000 -50 l0 -45 -45 0 -45 0 0 45 0 45 45 0 45 0 0 -45z m900 0
l0 -45 -45 0 -45 0 0 45 0 45 45 0 45 0 0 -45z m100 0 l0 -45 -45 0 -45 0 0
45 0 45 45 0 45 0 0 -45z m-2500 -100 l0 -45 -45 0 -45 0 0 45 0 45 45 0 45 0
0 -45z m100 0 l0 -45 -45 0 -45 0 0 45 0 45 45 0 45 0 0 -45z m100 0 l0 -45
-45 0 -45 0 0 45 0 45 45 0 45 0 0 -45z m1300 -50 l0 -95 -95 0 -95 0 0 95 0
95 95 0 95 0 0 -95z m200 0 l0 -95 -95 0 -95 0 0 95 0 95 95 0 95 0 0 -95z
m200 0 l0 -95 -95 0 -95 0 0 95 0 95 95 0 95 0 0 -95z m100 50 l0 -45 -45 0
-45 0 0 45 0 45 45 0 45 0 0 -45z m100 0 l0 -45 -45 0 -45 0 0 45 0 45 45 0
45 0 0 -45z m100 0 l0 -45 -45 0 -45 0 0 45 0 45 45 0 45 0 0 -45z m100 0 l0
-45 -45 0 -45 0 0 45 0 45 45 0 45 0 0 -45z m100 0 l0 -45 -45 0 -45 0 0 45 0
45 45 0 45 0 0 -45z m100 0 l0 -45 -45 0 -45 0 0 45 0 45 45 0 45 0 0 -45z
m200 -50 l0 -95 -95 0 -95 0 0 95 0 95 95 0 95 0 0 -95z m100 50 l0 -45 -45 0
-45 0 0 45 0 45 45 0 45 0 0 -45z m100 0 l0 -45 -45 0 -45 0 0 45 0 45 45 0
45 0 0 -45z m200 -50 l0 -95 -95 0 -95 0 0 95 0 95 95 0 95 0 0 -95z m200 0
l0 -95 -95 0 -95 0 0 95 0 95 95 0 95 0 0 -95z m200 0 l0 -95 -95 0 -95 0 0
95 0 95 95 0 95 0 0 -95z m200 0 l0 -95 -95 0 -95 0 0 95 0 95 95 0 95 0 0
-95z m200 0 l0 -95 -95 0 -95 0 0 95 0 95 95 0 95 0 0 -95z m500 50 l0 -45
-45 0 -45 0 0 45 0 45 45 0 45 0 0 -45z m100 0 l0 -45 -45 0 -45 0 0 45 0 45
45 0 45 0 0 -45z m-4700 -100 l0 -45 -45 0 -45 0 0 45 0 45 45 0 45 0 0 -45z
m100 0 l0 -45 -45 0 -45 0 0 45 0 45 45 0 45 0 0 -45z m100 0 l0 -45 -45 0
-45 0 0 45 0 45 45 0 45 0 0 -45z m100 0 l0 -45 -45 0 -45 0 0 45 0 45 45 0
45 0 0 -45z m100 0 l0 -45 -45 0 -45 0 0 45 0 45 45 0 45 0 0 -45z m1100 0 l0
-45 -45 0 -45 0 0 45 0 45 45 0 45 0 0 -45z m700 0 l0 -45 -45 0 -45 0 0 45 0
45 45 0 45 0 0 -45z m100 0 l0 -45 -45 0 -45 0 0 45 0 45 45 0 45 0 0 -45z
m100 0 l0 -45 -45 0 -45 0 0 45 0 45 45 0 45 0 0 -45z m100 0 l0 -45 -45 0
-45 0 0 45 0 45 45 0 45 0 0 -45z m100 0 l0 -45 -45 0 -45 0 0 45 0 45 45 0
45 0 0 -45z m100 0 l0 -45 -45 0 -45 0 0 45 0 45 45 0 45 0 0 -45z m300 0 l0
-45 -45 0 -45 0 0 45 0 45 45 0 45 0 0 -45z m100 0 l0 -45 -45 0 -45 0 0 45 0
45 45 0 45 0 0 -45z m1500 0 l0 -45 -45 0 -45 0 0 45 0 45 45 0 45 0 0 -45z
m100 0 l0 -45 -45 0 -45 0 0 45 0 45 45 0 45 0 0 -45z m-4800 -100 l0 -45 -45
0 -45 0 0 45 0 45 45 0 45 0 0 -45z m200 -50 l0 -95 -95 0 -95 0 0 95 0 95 95
0 95 0 0 -95z m200 0 l0 -95 -95 0 -95 0 0 95 0 95 95 0 95 0 0 -95z m200 0
l0 -95 -95 0 -95 0 0 95 0 95 95 0 95 0 0 -95z m800 50 l0 -45 -45 0 -45 0 0
45 0 45 45 0 45 0 0 -45z m1300 0 l0 -45 -45 0 -45 0 0 45 0 45 45 0 45 0 0
-45z m100 0 l0 -45 -45 0 -45 0 0 45 0 45 45 0 45 0 0 -45z m100 0 l0 -45 -45
0 -45 0 0 45 0 45 45 0 45 0 0 -45z m100 0 l0 -45 -45 0 -45 0 0 45 0 45 45 0
45 0 0 -45z m200 -50 l0 -95 -95 0 -95 0 0 95 0 95 95 0 95 0 0 -95z m200 0
l0 -95 -95 0 -95 0 0 95 0 95 95 0 95 0 0 -95z m200 0 l0 -95 -95 0 -95 0 0
95 0 95 95 0 95 0 0 -95z m200 0 l0 -95 -95 0 -95 0 0 95 0 95 95 0 95 0 0
-95z m200 0 l0 -95 -95 0 -95 0 0 95 0 95 95 0 95 0 0 -95z m200 0 l0 -95 -95
0 -95 0 0 95 0 95 95 0 95 0 0 -95z m400 -100 l0 -195 -195 0 -195 0 0 195 0
195 195 0 195 0 0 -195z m200 100 l0 -95 -95 0 -95 0 0 95 0 95 95 0 95 0 0
-95z m-4800 -50 l0 -45 -45 0 -45 0 0 45 0 45 45 0 45 0 0 -45z m2700 0 l0
-45 -45 0 -45 0 0 45 0 45 45 0 45 0 0 -45z m100 0 l0 -45 -45 0 -45 0 0 45 0
45 45 0 45 0 0 -45z m100 0 l0 -45 -45 0 -45 0 0 45 0 45 45 0 45 0 0 -45z
m100 0 l0 -45 -45 0 -45 0 0 45 0 45 45 0 45 0 0 -45z m-1800 -25 c0 -13 -7
-20 -20 -20 -13 0 -20 7 -20 20 0 13 7 20 20 20 13 0 20 -7 20 -20z m-1200
-125 l0 -95 -95 0 -95 0 0 95 0 95 95 0 95 0 0 -95z m3000 50 l0 -45 -45 0
-45 0 0 45 0 45 45 0 45 0 0 -45z m100 0 l0 -45 -45 0 -45 0 0 45 0 45 45 0
45 0 0 -45z m50 25 c0 -13 -7 -20 -20 -20 -13 0 -20 7 -20 20 0 13 7 20 20 20
13 0 20 -7 20 -20z m50 0 c0 -13 -7 -20 -20 -20 -13 0 -20 7 -20 20 0 13 7 20
20 20 13 0 20 -7 20 -20z m200 -75 l0 -95 -95 0 -95 0 0 95 0 95 95 0 95 0 0
-95z m200 0 l0 -95 -95 0 -95 0 0 95 0 95 95 0 95 0 0 -95z m200 0 l0 -95 -95
0 -95 0 0 95 0 95 95 0 95 0 0 -95z m100 50 l0 -45 -45 0 -45 0 0 45 0 45 45
0 45 0 0 -45z m100 0 l0 -45 -45 0 -45 0 0 45 0 45 45 0 45 0 0 -45z m200 -50
l0 -95 -95 0 -95 0 0 95 0 95 95 0 95 0 0 -95z m500 50 l0 -45 -45 0 -45 0 0
45 0 45 45 0 45 0 0 -45z m100 0 l0 -45 -45 0 -45 0 0 45 0 45 45 0 45 0 0
-45z m-4000 -25 c0 -13 -7 -20 -20 -20 -13 0 -20 7 -20 20 0 13 7 20 20 20 13
0 20 -7 20 -20z m2350 0 c0 -13 -7 -20 -20 -20 -13 0 -20 7 -20 20 0 13 7 20
20 20 13 0 20 -7 20 -20z m50 0 c0 -13 -7 -20 -20 -20 -13 0 -20 7 -20 20 0
13 7 20 20 20 13 0 20 -7 20 -20z m-3400 -75 l0 -45 -45 0 -45 0 0 45 0 45 45
0 45 0 0 -45z m3300 0 l0 -45 -45 0 -45 0 0 45 0 45 45 0 45 0 0 -45z m100 0
l0 -45 -45 0 -45 0 0 45 0 45 45 0 45 0 0 -45z m700 0 l0 -45 -45 0 -45 0 0
45 0 45 45 0 45 0 0 -45z m100 0 l0 -45 -45 0 -45 0 0 45 0 45 45 0 45 0 0
-45z m700 0 l0 -45 -45 0 -45 0 0 45 0 45 45 0 45 0 0 -45z m100 0 l0 -45 -45
0 -45 0 0 45 0 45 45 0 45 0 0 -45z m-4800 -150 l0 -95 -95 0 -95 0 0 95 0 95
95 0 95 0 0 -95z m3150 75 c0 -13 -7 -20 -20 -20 -13 0 -20 7 -20 20 0 13 7
20 20 20 13 0 20 -7 20 -20z m50 0 c0 -13 -7 -20 -20 -20 -13 0 -20 7 -20 20
0 13 7 20 20 20 13 0 20 -7 20 -20z m200 -75 l0 -95 -95 0 -95 0 0 95 0 95 95
0 95 0 0 -95z m200 0 l0 -95 -95 0 -95 0 0 95 0 95 95 0 95 0 0 -95z m100 50
l0 -45 -45 0 -45 0 0 45 0 45 45 0 45 0 0 -45z m100 0 l0 -45 -45 0 -45 0 0
45 0 45 45 0 45 0 0 -45z m200 -50 l0 -95 -95 0 -95 0 0 95 0 95 95 0 95 0 0
-95z m200 0 l0 -95 -95 0 -95 0 0 95 0 95 95 0 95 0 0 -95z m200 0 l0 -95 -95
0 -95 0 0 95 0 95 95 0 95 0 0 -95z m200 0 l0 -95 -95 0 -95 0 0 95 0 95 95 0
95 0 0 -95z m200 0 l0 -95 -95 0 -95 0 0 95 0 95 95 0 95 0 0 -95z m-1100 -50
l0 -45 -45 0 -45 0 0 45 0 45 45 0 45 0 0 -45z m100 0 l0 -45 -45 0 -45 0 0
45 0 45 45 0 45 0 0 -45z m-4000 -100 l0 -45 -45 0 -45 0 0 45 0 45 45 0 45 0
0 -45z m100 0 l0 -45 -45 0 -45 0 0 45 0 45 45 0 45 0 0 -45z m3500 0 l0 -45
-45 0 -45 0 0 45 0 45 45 0 45 0 0 -45z m200 -50 l0 -95 -95 0 -95 0 0 95 0
95 95 0 95 0 0 -95z m100 50 l0 -45 -45 0 -45 0 0 45 0 45 45 0 45 0 0 -45z
m100 0 l0 -45 -45 0 -45 0 0 45 0 45 45 0 45 0 0 -45z m200 -50 l0 -95 -95 0
-95 0 0 95 0 95 95 0 95 0 0 -95z m200 0 l0 -95 -95 0 -95 0 0 95 0 95 95 0
95 0 0 -95z m100 50 l0 -45 -45 0 -45 0 0 45 0 45 45 0 45 0 0 -45z m100 0 l0
-45 -45 0 -45 0 0 45 0 45 45 0 45 0 0 -45z m100 0 l0 -45 -45 0 -45 0 0 45 0
45 45 0 45 0 0 -45z m100 0 l0 -45 -45 0 -45 0 0 45 0 45 45 0 45 0 0 -45z
m200 -50 l0 -95 -95 0 -95 0 0 95 0 95 95 0 95 0 0 -95z m-4900 -50 l0 -45
-45 0 -45 0 0 45 0 45 45 0 45 0 0 -45z m3800 0 l0 -45 -45 0 -45 0 0 45 0 45
45 0 45 0 0 -45z m100 0 l0 -45 -45 0 -45 0 0 45 0 45 45 0 45 0 0 -45z m500
0 l0 -45 -45 0 -45 0 0 45 0 45 45 0 45 0 0 -45z m100 0 l0 -45 -45 0 -45 0 0
45 0 45 45 0 45 0 0 -45z m100 0 l0 -45 -45 0 -45 0 0 45 0 45 45 0 45 0 0
-45z m100 0 l0 -45 -45 0 -45 0 0 45 0 45 45 0 45 0 0 -45z m-4750 -75 c0 -13
-7 -20 -20 -20 -13 0 -20 7 -20 20 0 13 7 20 20 20 13 0 20 -7 20 -20z m50 0
c0 -13 -7 -20 -20 -20 -13 0 -20 7 -20 20 0 13 7 20 20 20 13 0 20 -7 20 -20z
m100 -25 l0 -45 -45 0 -45 0 0 45 0 45 45 0 45 0 0 -45z m3500 0 l0 -45 -45 0
-45 0 0 45 0 45 45 0 45 0 0 -45z m100 0 l0 -45 -45 0 -45 0 0 45 0 45 45 0
45 0 0 -45z m200 -50 l0 -95 -95 0 -95 0 0 95 0 95 95 0 95 0 0 -95z m200 0
l0 -95 -95 0 -95 0 0 95 0 95 95 0 95 0 0 -95z m200 0 l0 -95 -95 0 -95 0 0
95 0 95 95 0 95 0 0 -95z m400 -100 l0 -195 -195 0 -195 0 0 195 0 195 195 0
195 0 0 -195z m-4750 125 c0 -13 -7 -20 -20 -20 -13 0 -20 7 -20 20 0 13 7 20
20 20 13 0 20 -7 20 -20z m50 0 c0 -13 -7 -20 -20 -20 -13 0 -20 7 -20 20 0
13 7 20 20 20 13 0 20 -7 20 -20z m0 -75 l0 -45 -45 0 -45 0 0 45 0 45 45 0
45 0 0 -45z m100 0 l0 -45 -45 0 -45 0 0 45 0 45 45 0 45 0 0 -45z m100 25 c0
-13 -7 -20 -20 -20 -13 0 -20 7 -20 20 0 13 7 20 20 20 13 0 20 -7 20 -20z
m100 -25 l0 -45 -45 0 -45 0 0 45 0 45 45 0 45 0 0 -45z m3400 0 l0 -45 -45 0
-45 0 0 45 0 45 45 0 45 0 0 -45z m-3550 15 c0 -5 -4 -10 -10 -10 -5 0 -10 5
-10 10 0 6 5 10 10 10 6 0 10 -4 10 -10z m0 -40 c0 -13 -7 -20 -20 -20 -13 0
-20 7 -20 20 0 13 7 20 20 20 13 0 20 -7 20 -20z m50 0 c0 -13 -7 -20 -20 -20
-13 0 -20 7 -20 20 0 13 7 20 20 20 13 0 20 -7 20 -20z m-100 -125 l0 -95 -95
0 -95 0 0 95 0 95 95 0 95 0 0 -95z m100 50 l0 -45 -45 0 -45 0 0 45 0 45 45
0 45 0 0 -45z m100 0 l0 -45 -45 0 -45 0 0 45 0 45 45 0 45 0 0 -45z m3400 0
l0 -45 -45 0 -45 0 0 45 0 45 45 0 45 0 0 -45z m200 -50 l0 -95 -95 0 -95 0 0
95 0 95 95 0 95 0 0 -95z m200 0 l0 -95 -95 0 -95 0 0 95 0 95 95 0 95 0 0
-95z m200 0 l0 -95 -95 0 -95 0 0 95 0 95 95 0 95 0 0 -95z m-4100 -50 l0 -45
-45 0 -45 0 0 45 0 45 45 0 45 0 0 -45z m-100 -100 l0 -45 -45 0 -45 0 0 45 0
45 45 0 45 0 0 -45z m3800 -50 l0 -95 -95 0 -95 0 0 95 0 95 95 0 95 0 0 -95z
m200 0 l0 -95 -95 0 -95 0 0 95 0 95 95 0 95 0 0 -95z m200 0 l0 -95 -95 0
-95 0 0 95 0 95 95 0 95 0 0 -95z m200 0 l0 -95 -95 0 -95 0 0 95 0 95 95 0
95 0 0 -95z m200 0 l0 -95 -95 0 -95 0 0 95 0 95 95 0 95 0 0 -95z m-4400
-150 l0 -45 -45 0 -45 0 0 45 0 45 45 0 45 0 0 -45z m3600 0 l0 -45 -45 0 -45
0 0 45 0 45 45 0 45 0 0 -45z m200 -50 l0 -95 -95 0 -95 0 0 95 0 95 95 0 95
0 0 -95z m100 50 l0 -45 -45 0 -45 0 0 45 0 45 45 0 45 0 0 -45z m100 0 l0
-45 -45 0 -45 0 0 45 0 45 45 0 45 0 0 -45z m200 -50 l0 -95 -95 0 -95 0 0 95
0 95 95 0 95 0 0 -95z m200 0 l0 -95 -95 0 -95 0 0 95 0 95 95 0 95 0 0 -95z
m-800 -50 l0 -45 -45 0 -45 0 0 45 0 45 45 0 45 0 0 -45z m300 0 l0 -45 -45 0
-45 0 0 45 0 45 45 0 45 0 0 -45z m100 0 l0 -45 -45 0 -45 0 0 45 0 45 45 0
45 0 0 -45z m-4300 -100 l0 -45 -45 0 -45 0 0 45 0 45 45 0 45 0 0 -45z m3900
0 l0 -45 -45 0 -45 0 0 45 0 45 45 0 45 0 0 -45z m100 0 l0 -45 -45 0 -45 0 0
45 0 45 45 0 45 0 0 -45z m100 0 l0 -45 -45 0 -45 0 0 45 0 45 45 0 45 0 0
-45z m100 0 l0 -45 -45 0 -45 0 0 45 0 45 45 0 45 0 0 -45z m100 0 l0 -45 -45
0 -45 0 0 45 0 45 45 0 45 0 0 -45z m200 -50 l0 -95 -95 0 -95 0 0 95 0 95 95
0 95 0 0 -95z m100 50 l0 -45 -45 0 -45 0 0 45 0 45 45 0 45 0 0 -45z m50 25
c0 -13 -7 -20 -20 -20 -13 0 -20 7 -20 20 0 13 7 20 20 20 13 0 20 -7 20 -20z
m50 0 c0 -13 -7 -20 -20 -20 -13 0 -20 7 -20 20 0 13 7 20 20 20 13 0 20 -7
20 -20z m-50 -50 c0 -13 -7 -20 -20 -20 -13 0 -20 7 -20 20 0 13 7 20 20 20
13 0 20 -7 20 -20z m50 0 c0 -13 -7 -20 -20 -20 -13 0 -20 7 -20 20 0 13 7 20
20 20 13 0 20 -7 20 -20z m-800 -75 l0 -45 -45 0 -45 0 0 45 0 45 45 0 45 0 0
-45z m50 25 c0 -13 -7 -20 -20 -20 -13 0 -20 7 -20 20 0 13 7 20 20 20 13 0
20 -7 20 -20z m50 0 c0 -13 -7 -20 -20 -20 -13 0 -20 7 -20 20 0 13 7 20 20
20 13 0 20 -7 20 -20z m100 -25 l0 -45 -45 0 -45 0 0 45 0 45 45 0 45 0 0 -45z
m100 0 l0 -45 -45 0 -45 0 0 45 0 45 45 0 45 0 0 -45z m100 0 l0 -45 -45 0
-45 0 0 45 0 45 45 0 45 0 0 -45z m300 0 l0 -45 -45 0 -45 0 0 45 0 45 45 0
45 0 0 -45z m100 0 l0 -45 -45 0 -45 0 0 45 0 45 45 0 45 0 0 -45z m-750 -25
c0 -13 -7 -20 -20 -20 -13 0 -20 7 -20 20 0 13 7 20 20 20 13 0 20 -7 20 -20z
m50 0 c0 -13 -7 -20 -20 -20 -13 0 -20 7 -20 20 0 13 7 20 20 20 13 0 20 -7
20 -20z m-3900 -125 l0 -95 -95 0 -95 0 0 95 0 95 95 0 95 0 0 -95z m2400 50
l0 -45 -45 0 -45 0 0 45 0 45 45 0 45 0 0 -45z m1400 0 l0 -45 -45 0 -45 0 0
45 0 45 45 0 45 0 0 -45z m200 -50 l0 -95 -95 0 -95 0 0 95 0 95 95 0 95 0 0
-95z m100 50 l0 -45 -45 0 -45 0 0 45 0 45 45 0 45 0 0 -45z m100 0 l0 -45
-45 0 -45 0 0 45 0 45 45 0 45 0 0 -45z m200 -50 l0 -95 -95 0 -95 0 0 95 0
95 95 0 95 0 0 -95z m200 0 l0 -95 -95 0 -95 0 0 95 0 95 95 0 95 0 0 -95z
m-2198 -157 c1 -84 3 -129 5 -100 l4 52 45 0 c41 0 44 -2 45 -27 l2 -28 4 26
c3 22 11 28 44 33 22 4 43 4 47 2 4 -2 8 8 7 22 0 23 4 27 28 27 22 -1 27 4
27 22 0 22 4 23 70 23 l70 0 0 -95 0 -95 -177 -1 c-98 -1 -166 -4 -150 -6 19
-3 27 -10 27 -24 0 -18 -8 -19 -125 -19 l-125 0 0 -25 c0 -38 -39 -35 -41 3
l-2 27 -4 -27 c-3 -22 -10 -28 -29 -28 -19 0 -24 -5 -24 -25 0 -23 -3 -25 -50
-25 l-50 0 0 -75 c0 -73 -1 -75 -25 -75 l-25 0 0 -155 0 -155 50 0 50 0 0
-145 0 -145 -52 -2 -53 -2 53 -3 52 -4 0 -45 0 -44 -50 0 -50 0 0 -155 0 -155
50 0 50 0 0 -45 0 -45 -170 0 c-161 0 -170 1 -170 19 0 12 8 21 23 24 19 4 18
4 -5 6 -24 1 -28 -3 -28 -24 0 -20 -5 -25 -25 -25 -17 0 -25 -5 -24 -17 0 -11
3 -13 6 -5 8 20 43 14 43 -8 0 -11 -5 -20 -11 -20 -24 0 -40 -30 -37 -72 3
-39 4 -41 20 -25 9 10 32 17 52 17 20 0 36 5 36 10 0 6 20 10 45 10 l45 0 1
-52 c1 -29 4 -41 6 -25 3 19 10 27 24 27 16 0 19 -8 20 -52 0 -39 3 -48 9 -33
7 17 9 17 9 3 1 -10 8 -18 16 -18 12 0 15 -16 17 -77 1 -63 2 -68 5 -25 l4 52
45 0 44 0 0 -45 c0 -41 -2 -45 -25 -45 -20 0 -25 -5 -25 -25 0 -20 -5 -25 -25
-25 -20 0 -25 -5 -25 -25 0 -38 -39 -35 -41 3 l-2 27 -4 -27 c-6 -38 -43 -40
-43 -3 0 24 -3 25 -55 25 -52 0 -55 -1 -55 -25 0 -20 -5 -25 -25 -25 -20 0
-25 -5 -25 -25 0 -24 -2 -25 -75 -25 -73 0 -75 -1 -75 -25 0 -20 -5 -25 -25
-25 -22 0 -25 -4 -24 -32 2 -31 2 -31 6 -5 6 38 42 38 44 0 l2 -28 4 28 c3 21
10 27 29 27 19 0 24 5 24 25 0 38 39 35 41 -2 l2 -28 4 28 c5 35 42 39 44 5
l2 -23 4 23 c6 32 43 30 43 -3 0 -20 5 -25 25 -25 20 0 25 -5 26 -27 l2 -28 4
28 c6 35 43 39 43 5 0 -22 3 -23 75 -21 l75 2 0 -49 c0 -47 -2 -50 -25 -50
-20 0 -25 -5 -25 -25 0 -23 -4 -25 -45 -25 -41 0 -45 2 -45 25 0 24 -2 25 -66
25 -64 0 -94 -13 -94 -39 0 -6 -11 -11 -25 -11 -20 0 -25 -5 -25 -25 0 -20 -5
-25 -25 -25 -20 0 -25 -5 -25 -25 0 -20 -5 -25 -25 -25 -24 0 -25 -2 -23 -57
l2 -58 3 53 4 52 45 0 44 0 1 -52 c1 -29 4 -41 6 -25 5 35 42 39 44 5 l2 -23
4 22 c3 15 12 23 24 23 18 0 19 -8 19 -120 l0 -120 -50 0 -50 0 0 -50 0 -50
-95 0 -95 0 0 44 0 45 53 4 c28 2 6 4 -50 5 l-103 2 0 44 0 45 53 4 c42 3 37
4 -25 5 -76 2 -78 3 -78 27 0 20 -5 25 -25 25 -37 0 -35 37 3 43 15 2 3 5 -25
6 -45 1 -53 4 -53 20 0 14 8 21 28 24 15 2 3 5 -25 6 -45 1 -53 4 -53 20 0 14
8 21 28 24 15 2 3 5 -25 6 -45 1 -53 4 -53 20 0 12 8 21 23 24 12 2 1 5 -25 6
-41 1 -48 4 -48 21 0 15 7 20 28 21 l27 2 -27 4 c-22 3 -28 10 -28 29 0 20 -5
24 -31 24 -28 0 -31 3 -27 25 4 21 1 25 -18 25 -19 0 -24 5 -24 25 0 21 -5 25
-30 25 -27 0 -30 3 -26 25 5 25 4 25 -70 25 l-74 0 0 45 0 45 53 2 52 2 -52 3
-53 4 0 45 0 44 53 2 52 2 -52 3 -53 4 0 45 c0 41 2 44 28 45 l27 2 -27 4
c-20 3 -28 10 -28 24 0 14 7 19 28 20 l27 2 -27 4 c-22 3 -28 10 -28 29 0 19
-5 24 -25 24 -20 0 -25 5 -25 25 0 16 -6 25 -15 25 -21 0 -19 20 3 21 13 0 14
2 2 6 -29 12 -41 33 -43 78 l-2 45 -47 0 -48 0 0 45 0 45 53 2 52 2 -52 3 -53
4 0 45 0 44 53 2 c36 1 42 2 19 5 -32 4 -32 5 -29 54 2 44 1 49 -19 49 -19 0
-22 7 -26 63 -10 120 0 871 11 875 6 2 11 10 11 18 0 8 8 14 18 15 14 0 14 2
-3 9 -17 7 -17 9 -2 9 12 1 17 9 17 31 0 25 4 30 25 30 20 0 25 5 25 25 0 23
4 25 45 25 l45 0 0 -50 c0 -48 -1 -50 -27 -51 l-28 -2 28 -4 c37 -6 39 -43 2
-43 -21 0 -25 -5 -25 -27 0 -24 4 -28 30 -28 24 0 30 4 30 23 0 25 -3 25 173
27 l117 2 0 -26 c0 -26 1 -26 70 -25 38 0 83 -1 100 -4 29 -4 30 -7 32 -56 l2
-51 3 53 4 52 45 0 44 0 0 -45 c0 -41 -2 -45 -25 -45 -20 0 -25 -5 -25 -25 0
-23 -3 -25 -50 -25 l-50 0 1 -32 c2 -31 2 -31 6 -5 3 19 10 27 24 27 17 0 19
-7 19 -70 l0 -70 -70 0 c-62 0 -70 2 -70 19 0 12 8 21 23 24 19 4 18 4 -5 6
-24 1 -28 -3 -28 -24 0 -25 -1 -25 -86 -25 -84 0 -114 -10 -114 -39 0 -6 -9
-11 -20 -11 -33 0 -26 38 8 43 25 4 25 4 -5 6 -29 1 -33 -2 -33 -24 0 -20 -5
-25 -25 -25 -20 0 -25 -5 -25 -25 0 -20 5 -25 25 -25 21 0 25 -5 26 -32 2 -31
2 -31 6 -5 3 21 10 27 29 27 19 0 24 5 24 25 0 17 6 25 18 26 9 1 41 3 70 5
l52 4 2 -82 c1 -62 3 -69 5 -30 l4 52 45 0 44 0 1 -52 c1 -29 4 -41 6 -25 6
35 43 39 43 5 0 -21 5 -23 53 -23 49 0 52 1 52 25 0 20 5 25 25 25 21 0 25 4
25 25 0 23 4 25 48 27 45 2 47 1 47 -25 0 -23 4 -27 29 -27 16 0 27 3 25 7 -3
4 -2 25 2 47 5 31 11 41 25 41 14 0 19 -8 20 -27 l2 -28 4 28 c3 21 10 27 31
28 l27 2 -27 4 c-20 3 -28 10 -28 24 0 14 7 19 28 20 l27 2 -27 4 c-26 4 -28
8 -28 49 l0 44 53 2 52 2 -52 3 c-45 3 -53 7 -53 24 0 14 7 19 25 19 20 0 25
5 25 25 0 38 39 35 41 -2 l2 -28 4 28 c3 19 10 27 24 27 16 0 19 -8 20 -47 1
-27 4 -38 6 -25 7 34 43 30 44 -5 l2 -28 4 28 c3 19 10 27 24 27 14 0 19 -7
20 -27 0 -25 1 -26 9 -8 5 11 9 14 9 7 1 -10 4 -10 15 0 10 9 11 15 2 20 -7 5
-3 8 9 9 17 1 17 2 3 6 -13 3 -18 15 -18 44 0 29 -4 39 -16 39 -8 0 -12 5 -9
10 4 6 -5 10 -19 10 -38 0 -36 37 2 43 15 2 -8 5 -50 6 l-78 1 0 44 0 45 53 4
c28 2 -5 4 -75 5 -119 2 -128 3 -128 21 0 12 8 21 23 24 12 2 -67 5 -175 6
-191 1 -198 2 -198 21 0 15 7 20 28 21 l27 2 -27 4 c-26 4 -28 8 -28 49 l0 44
45 0 45 0 1 -52 c1 -29 4 -41 6 -25 3 19 11 27 26 29 12 0 42 2 67 4 24 2 46
8 48 13 2 6 14 11 27 11 23 0 35 17 35 51 0 12 7 19 20 19 14 0 20 -7 20 -22
0 -22 4 -23 80 -23 l80 0 0 48 0 47 45 0 45 0 1 -52 c1 -29 4 -41 6 -25 5 35
42 39 44 5 l2 -23 4 23 c6 33 41 29 46 -5 2 -16 5 -4 6 25 l1 52 45 0 45 0 0
-95 0 -95 -50 0 -50 0 1 -57 c1 -32 4 -46 6 -32 3 22 11 28 41 32 20 3 54 5
75 4 32 -2 37 0 37 20 0 18 6 23 25 23 23 0 25 3 25 50 l0 50 50 0 50 0 0 49
0 50 48 3 47 3 3 48 3 47 45 0 44 0 2 -152z m1348 132 c0 -13 -7 -20 -20 -20
-13 0 -20 7 -20 20 0 13 7 20 20 20 13 0 20 -7 20 -20z m50 0 c0 -13 -7 -20
-20 -20 -13 0 -20 7 -20 20 0 13 7 20 20 20 13 0 20 -7 20 -20z m300 -25 l0
-45 -45 0 -45 0 0 45 0 45 45 0 45 0 0 -45z m100 0 l0 -45 -45 0 -45 0 0 45 0
45 45 0 45 0 0 -45z m-450 -25 c0 -13 -7 -20 -20 -20 -13 0 -20 7 -20 20 0 13
7 20 20 20 13 0 20 -7 20 -20z m50 0 c0 -13 -7 -20 -20 -20 -13 0 -20 7 -20
20 0 13 7 20 20 20 13 0 20 -7 20 -20z m-2364 -30 c8 0 14 -9 14 -20 0 -17 -7
-20 -50 -20 -42 0 -50 3 -50 18 0 27 11 34 44 28 16 -3 35 -6 42 -6z m-1536
-45 l0 -45 -45 0 -45 0 0 45 0 45 45 0 45 0 0 -45z m100 0 l0 -45 -45 0 -45 0
0 45 0 45 45 0 45 0 0 -45z m1000 -2 l0 -48 50 3 50 4 0 -51 0 -51 -100 0
-100 0 4 53 c2 28 4 71 5 95 l1 42 45 0 45 0 0 -47z m500 27 c0 -13 -7 -20
-20 -20 -13 0 -20 7 -20 20 0 13 7 20 20 20 13 0 20 -7 20 -20z m350 0 c0 -13
-7 -20 -20 -20 -13 0 -20 7 -20 20 0 13 7 20 20 20 13 0 20 -7 20 -20z m50 0
c0 -13 -7 -20 -20 -20 -13 0 -20 7 -20 20 0 13 7 20 20 20 13 0 20 -7 20 -20z
m2000 -25 l0 -45 -45 0 -45 0 0 45 0 45 45 0 45 0 0 -45z m100 0 l0 -45 -45 0
-45 0 0 45 0 45 45 0 45 0 0 -45z m100 0 l0 -45 -45 0 -45 0 0 45 0 45 45 0
45 0 0 -45z m100 0 l0 -45 -45 0 -45 0 0 45 0 45 45 0 45 0 0 -45z m100 0 l0
-45 -45 0 -45 0 0 45 0 45 45 0 45 0 0 -45z m100 0 l0 -45 -45 0 -45 0 0 45 0
45 45 0 45 0 0 -45z m200 -50 l0 -95 -95 0 -95 0 0 95 0 95 95 0 95 0 0 -95z
m-4500 25 c0 -13 -7 -20 -20 -20 -13 0 -20 7 -20 20 0 13 7 20 20 20 13 0 20
-7 20 -20z m800 0 c0 -13 -7 -20 -20 -20 -13 0 -20 7 -20 20 0 13 7 20 20 20
13 0 20 -7 20 -20z m600 0 c0 -13 -7 -20 -20 -20 -13 0 -20 7 -20 20 0 13 7
20 20 20 13 0 20 -7 20 -20z m-1600 -75 l0 -45 -45 0 -45 0 0 45 0 45 45 0 45
0 0 -45z m100 0 l0 -45 -45 0 -45 0 0 45 0 45 45 0 45 0 0 -45z m100 0 l0 -45
-45 0 -45 0 0 45 0 45 45 0 45 0 0 -45z m1100 0 l0 -45 -45 0 -45 0 0 45 0 45
45 0 45 0 0 -45z m1700 0 l0 -45 -45 0 -45 0 0 45 0 45 45 0 45 0 0 -45z
m1000 0 l0 -45 -45 0 -45 0 0 45 0 45 45 0 45 0 0 -45z m50 25 c0 -13 -7 -20
-20 -20 -13 0 -20 7 -20 20 0 13 7 20 20 20 13 0 20 -7 20 -20z m50 0 c0 -13
-7 -20 -20 -20 -13 0 -20 7 -20 20 0 13 7 20 20 20 13 0 20 -7 20 -20z m100
-25 l0 -45 -45 0 -45 0 0 45 0 45 45 0 45 0 0 -45z m50 25 c0 -13 -7 -20 -20
-20 -13 0 -20 7 -20 20 0 13 7 20 20 20 13 0 20 -7 20 -20z m50 0 c0 -13 -7
-20 -20 -20 -13 0 -20 7 -20 20 0 13 7 20 20 20 13 0 20 -7 20 -20z m100 -25
l0 -45 -45 0 -45 0 0 45 0 45 45 0 45 0 0 -45z m50 25 c0 -13 -7 -20 -20 -20
-13 0 -20 7 -20 20 0 13 7 20 20 20 13 0 20 -7 20 -20z m50 0 c0 -13 -7 -20
-20 -20 -13 0 -20 7 -20 20 0 13 7 20 20 20 13 0 20 -7 20 -20z m-450 -50 c0
-13 -7 -20 -20 -20 -13 0 -20 7 -20 20 0 13 7 20 20 20 13 0 20 -7 20 -20z
m50 0 c0 -13 -7 -20 -20 -20 -13 0 -20 7 -20 20 0 13 7 20 20 20 13 0 20 -7
20 -20z m150 0 c0 -13 -7 -20 -20 -20 -13 0 -20 7 -20 20 0 13 7 20 20 20 13
0 20 -7 20 -20z m50 0 c0 -13 -7 -20 -20 -20 -13 0 -20 7 -20 20 0 13 7 20 20
20 13 0 20 -7 20 -20z m150 0 c0 -13 -7 -20 -20 -20 -13 0 -20 7 -20 20 0 13
7 20 20 20 13 0 20 -7 20 -20z m50 0 c0 -13 -7 -20 -20 -20 -13 0 -20 7 -20
20 0 13 7 20 20 20 13 0 20 -7 20 -20z m-4400 -125 l0 -95 -95 0 -95 0 0 95 0
95 95 0 95 0 0 -95z m100 50 l0 -45 -45 0 -45 0 0 45 0 45 45 0 45 0 0 -45z
m800 0 l0 -45 -45 0 -45 0 0 45 0 45 45 0 45 0 0 -45z m50 25 c0 -13 -7 -20
-20 -20 -13 0 -20 7 -20 20 0 13 7 20 20 20 13 0 20 -7 20 -20z m50 0 c0 -13
-7 -20 -20 -20 -13 0 -20 7 -20 20 0 13 7 20 20 20 13 0 20 -7 20 -20z m200 0
c0 -13 -7 -20 -20 -20 -13 0 -20 7 -20 20 0 13 7 20 20 20 13 0 20 -7 20 -20z
m1450 0 c0 -13 -7 -20 -20 -20 -13 0 -20 7 -20 20 0 13 7 20 20 20 13 0 20 -7
20 -20z m50 0 c0 -13 -7 -20 -20 -20 -13 0 -20 7 -20 20 0 13 7 20 20 20 13 0
20 -7 20 -20z m1100 -25 l0 -45 -45 0 -45 0 0 45 0 45 45 0 45 0 0 -45z m50
25 c0 -13 -7 -20 -20 -20 -13 0 -20 7 -20 20 0 13 7 20 20 20 13 0 20 -7 20
-20z m50 0 c0 -13 -7 -20 -20 -20 -13 0 -20 7 -20 20 0 13 7 20 20 20 13 0 20
-7 20 -20z m50 0 c0 -13 -7 -20 -20 -20 -13 0 -20 7 -20 20 0 13 7 20 20 20
13 0 20 -7 20 -20z m50 0 c0 -13 -7 -20 -20 -20 -13 0 -20 7 -20 20 0 13 7 20
20 20 13 0 20 -7 20 -20z m200 -75 l0 -95 -95 0 -95 0 0 95 0 95 95 0 95 0 0
-95z m100 50 l0 -45 -45 0 -45 0 0 45 0 45 45 0 45 0 0 -45z m100 0 l0 -45
-45 0 -45 0 0 45 0 45 45 0 45 0 0 -45z m200 -50 l0 -95 -95 0 -95 0 0 95 0
95 95 0 95 0 0 -95z m-3050 25 c0 -13 -7 -20 -20 -20 -13 0 -20 7 -20 20 0 13
7 20 20 20 13 0 20 -7 20 -20z m2150 0 c0 -13 -7 -20 -20 -20 -13 0 -20 7 -20
20 0 13 7 20 20 20 13 0 20 -7 20 -20z m150 0 c0 -13 -7 -20 -20 -20 -13 0
-20 7 -20 20 0 13 7 20 20 20 13 0 20 -7 20 -20z m50 0 c0 -13 -7 -20 -20 -20
-13 0 -20 7 -20 20 0 13 7 20 20 20 13 0 20 -7 20 -20z m50 0 c0 -13 -7 -20
-20 -20 -13 0 -20 7 -20 20 0 13 7 20 20 20 13 0 20 -7 20 -20z m50 0 c0 -13
-7 -20 -20 -20 -13 0 -20 7 -20 20 0 13 7 20 20 20 13 0 20 -7 20 -20z m-800
-45 c0 -20 -5 -25 -25 -25 -18 0 -25 5 -25 18 0 10 3 22 7 25 3 4 15 7 25 7
13 0 18 -7 18 -25z m-3100 -30 l0 -45 -45 0 -45 0 0 45 0 45 45 0 45 0 0 -45z
m50 25 c0 -13 -7 -20 -20 -20 -13 0 -20 7 -20 20 0 13 7 20 20 20 13 0 20 -7
20 -20z m50 0 c0 -13 -7 -20 -20 -20 -13 0 -20 7 -20 20 0 13 7 20 20 20 13 0
20 -7 20 -20z m3050 0 c0 -13 -7 -20 -20 -20 -13 0 -20 7 -20 20 0 13 7 20 20
20 13 0 20 -7 20 -20z m450 -25 l0 -45 -45 0 -45 0 0 45 0 45 45 0 45 0 0 -45z
m100 0 l0 -45 -45 0 -45 0 0 45 0 45 45 0 45 0 0 -45z m100 0 l0 -45 -45 0
-45 0 0 45 0 45 45 0 45 0 0 -45z m100 0 l0 -45 -45 0 -45 0 0 45 0 45 45 0
45 0 0 -45z m300 0 l0 -45 -45 0 -45 0 0 45 0 45 45 0 45 0 0 -45z m100 0 l0
-45 -45 0 -45 0 0 45 0 45 45 0 45 0 0 -45z m-4250 -25 c0 -13 -7 -20 -20 -20
-13 0 -20 7 -20 20 0 13 7 20 20 20 13 0 20 -7 20 -20z m50 0 c0 -13 -7 -20
-20 -20 -13 0 -20 7 -20 20 0 13 7 20 20 20 13 0 20 -7 20 -20z m3000 0 c0
-13 -7 -20 -20 -20 -13 0 -20 7 -20 20 0 13 7 20 20 20 13 0 20 -7 20 -20z
m50 0 c0 -13 -7 -20 -20 -20 -13 0 -20 7 -20 20 0 13 7 20 20 20 13 0 20 -7
20 -20z m-3249 -82 c1 -29 4 -41 6 -25 3 19 10 27 24 27 16 0 19 -7 19 -45 0
-41 -2 -45 -25 -45 -20 0 -25 -5 -25 -25 0 -25 0 -25 -95 -25 l-95 0 0 95 0
95 95 0 95 0 1 -52z m49 32 c0 -13 -7 -20 -20 -20 -13 0 -20 7 -20 20 0 13 7
20 20 20 13 0 20 -7 20 -20z m50 0 c0 -13 -7 -20 -20 -20 -13 0 -20 7 -20 20
0 13 7 20 20 20 13 0 20 -7 20 -20z m100 -25 l0 -45 -45 0 -45 0 0 45 0 45 45
0 45 0 0 -45z m3450 25 c0 -13 -7 -20 -20 -20 -13 0 -20 7 -20 20 0 13 7 20
20 20 13 0 20 -7 20 -20z m50 0 c0 -13 -7 -20 -20 -20 -13 0 -20 7 -20 20 0
13 7 20 20 20 13 0 20 -7 20 -20z m100 -25 l0 -45 -45 0 -45 0 0 45 0 45 45 0
45 0 0 -45z m100 0 l0 -45 -45 0 -45 0 0 45 0 45 45 0 45 0 0 -45z m100 0 l0
-45 -45 0 -45 0 0 45 0 45 45 0 45 0 0 -45z m100 0 l0 -45 -45 0 -45 0 0 45 0
45 45 0 45 0 0 -45z m100 0 l0 -45 -45 0 -45 0 0 45 0 45 45 0 45 0 0 -45z
m200 -50 l0 -95 -95 0 -95 0 0 95 0 95 95 0 95 0 0 -95z m100 50 l0 -45 -45 0
-45 0 0 45 0 45 45 0 45 0 0 -45z m100 0 l0 -45 -45 0 -45 0 0 45 0 45 45 0
45 0 0 -45z m200 -50 l0 -95 -95 0 -95 0 0 95 0 95 95 0 95 0 0 -95z m-4700
25 c0 -13 -7 -20 -20 -20 -13 0 -20 7 -20 20 0 13 7 20 20 20 13 0 20 -7 20
-20z m1350 0 c0 -13 -7 -20 -20 -20 -13 0 -20 7 -20 20 0 13 7 20 20 20 13 0
20 -7 20 -20z m50 0 c0 -13 -7 -20 -20 -20 -13 0 -20 7 -20 20 0 13 7 20 20
20 13 0 20 -7 20 -20z m1650 0 c0 -13 -7 -20 -20 -20 -13 0 -20 7 -20 20 0 13
7 20 20 20 13 0 20 -7 20 -20z m50 0 c0 -13 -7 -20 -20 -20 -13 0 -20 7 -20
20 0 13 7 20 20 20 13 0 20 -7 20 -20z m450 0 c0 -13 -7 -20 -20 -20 -13 0
-20 7 -20 20 0 13 7 20 20 20 13 0 20 -7 20 -20z m50 0 c0 -13 -7 -20 -20 -20
-13 0 -20 7 -20 20 0 13 7 20 20 20 13 0 20 -7 20 -20z m-2150 -10 c0 -5 -4
-10 -10 -10 -5 0 -10 5 -10 10 0 6 5 10 10 10 6 0 10 -4 10 -10z m-1850 -65
l0 -45 -45 0 -45 0 0 45 0 45 45 0 45 0 0 -45z m100 0 l0 -45 -45 0 -45 0 0
45 0 45 45 0 45 0 0 -45z m300 25 c0 -13 -7 -20 -20 -20 -13 0 -20 7 -20 20 0
13 7 20 20 20 13 0 20 -7 20 -20z m100 -25 l0 -45 -45 0 -45 0 0 45 0 45 45 0
45 0 0 -45z m1200 25 c0 -13 -7 -20 -20 -20 -13 0 -20 7 -20 20 0 13 7 20 20
20 13 0 20 -7 20 -20z m100 -25 l0 -45 -45 0 -45 0 0 45 0 45 45 0 45 0 0 -45z
m50 25 c0 -13 -7 -20 -20 -20 -13 0 -20 7 -20 20 0 13 7 20 20 20 13 0 20 -7
20 -20z m50 0 c0 -13 -7 -20 -20 -20 -13 0 -20 7 -20 20 0 13 7 20 20 20 13 0
20 -7 20 -20z m50 0 c0 -13 -7 -20 -20 -20 -13 0 -20 7 -20 20 0 13 7 20 20
20 13 0 20 -7 20 -20z m400 0 c0 -13 -7 -20 -20 -20 -13 0 -20 7 -20 20 0 13
7 20 20 20 13 0 20 -7 20 -20z m1150 0 c0 -13 -7 -20 -20 -20 -13 0 -20 7 -20
20 0 13 7 20 20 20 13 0 20 -7 20 -20z m50 0 c0 -13 -7 -20 -20 -20 -13 0 -20
7 -20 20 0 13 7 20 20 20 13 0 20 -7 20 -20z m350 0 c0 -13 -7 -20 -20 -20
-13 0 -20 7 -20 20 0 13 7 20 20 20 13 0 20 -7 20 -20z m100 -25 l0 -45 -45 0
-45 0 0 45 0 45 45 0 45 0 0 -45z m100 0 l0 -45 -45 0 -45 0 0 45 0 45 45 0
45 0 0 -45z m100 0 l0 -45 -45 0 -45 0 0 45 0 45 45 0 45 0 0 -45z m100 0 l0
-45 -45 0 -45 0 0 45 0 45 45 0 45 0 0 -45z m100 0 l0 -45 -45 0 -45 0 0 45 0
45 45 0 45 0 0 -45z m100 0 l0 -45 -45 0 -45 0 0 45 0 45 45 0 45 0 0 -45z
m300 0 l0 -45 -45 0 -45 0 0 45 0 45 45 0 45 0 0 -45z m100 0 l0 -45 -45 0
-45 0 0 45 0 45 45 0 45 0 0 -45z m-4550 -25 c0 -13 -7 -20 -20 -20 -13 0 -20
7 -20 20 0 13 7 20 20 20 13 0 20 -7 20 -20z m50 0 c0 -13 -7 -20 -20 -20 -13
0 -20 7 -20 20 0 13 7 20 20 20 13 0 20 -7 20 -20z m1450 0 c0 -13 -7 -20 -20
-20 -13 0 -20 7 -20 20 0 13 7 20 20 20 13 0 20 -7 20 -20z m50 0 c0 -13 -7
-20 -20 -20 -13 0 -20 7 -20 20 0 13 7 20 20 20 13 0 20 -7 20 -20z m1600 0
c0 -13 -7 -20 -20 -20 -13 0 -20 7 -20 20 0 13 7 20 20 20 13 0 20 -7 20 -20z
m50 0 c0 -13 -7 -20 -20 -20 -13 0 -20 7 -20 20 0 13 7 20 20 20 13 0 20 -7
20 -20z m300 0 c0 -13 -7 -20 -20 -20 -13 0 -20 7 -20 20 0 13 7 20 20 20 13
0 20 -7 20 -20z m50 0 c0 -13 -7 -20 -20 -20 -13 0 -20 7 -20 20 0 13 7 20 20
20 13 0 20 -7 20 -20z m-1550 -10 c0 -5 -4 -10 -10 -10 -5 0 -10 5 -10 10 0 6
5 10 10 10 6 0 10 -4 10 -10z m-2350 -65 l0 -45 -45 0 -45 0 0 45 0 45 45 0
45 0 0 -45z m100 0 l0 -45 -45 0 -45 0 0 45 0 45 45 0 45 0 0 -45z m100 0 l0
-45 -45 0 -45 0 0 45 0 45 45 0 45 0 0 -45z m102 -7 l2 -53 3 53 4 52 45 0 44
0 0 -45 c0 -41 -2 -45 -25 -45 -23 0 -25 -3 -25 -50 0 -47 -2 -50 -25 -50
l-25 0 0 -100 0 -100 -95 0 -95 0 0 95 0 95 53 2 52 2 -52 3 -53 4 0 45 0 44
50 0 50 0 0 50 0 50 45 0 45 0 2 -52z m148 32 c0 -13 -7 -20 -20 -20 -13 0
-20 7 -20 20 0 13 7 20 20 20 13 0 20 -7 20 -20z m50 0 c0 -13 -7 -20 -20 -20
-13 0 -20 7 -20 20 0 13 7 20 20 20 13 0 20 -7 20 -20z m50 0 c0 -13 -7 -20
-20 -20 -13 0 -20 7 -20 20 0 13 7 20 20 20 13 0 20 -7 20 -20z m1150 -25 l0
-45 -45 0 -45 0 0 45 0 45 45 0 45 0 0 -45z m200 25 c0 -13 -7 -20 -20 -20
-13 0 -20 7 -20 20 0 13 7 20 20 20 13 0 20 -7 20 -20z m450 0 c0 -13 -7 -20
-20 -20 -13 0 -20 7 -20 20 0 13 7 20 20 20 13 0 20 -7 20 -20z m1150 0 c0
-13 -7 -20 -20 -20 -13 0 -20 7 -20 20 0 13 7 20 20 20 13 0 20 -7 20 -20z
m100 -25 l0 -45 -45 0 -45 0 0 45 0 45 45 0 45 0 0 -45z m300 0 l0 -45 -45 0
-45 0 0 45 0 45 45 0 45 0 0 -45z m50 25 c0 -13 -7 -20 -20 -20 -13 0 -20 7
-20 20 0 13 7 20 20 20 13 0 20 -7 20 -20z m50 0 c0 -13 -7 -20 -20 -20 -13 0
-20 7 -20 20 0 13 7 20 20 20 13 0 20 -7 20 -20z m100 -25 l0 -45 -45 0 -45 0
0 45 0 45 45 0 45 0 0 -45z m100 0 l0 -45 -45 0 -45 0 0 45 0 45 45 0 45 0 0
-45z m100 0 l0 -45 -45 0 -45 0 0 45 0 45 45 0 45 0 0 -45z m100 0 l0 -45 -45
0 -45 0 0 45 0 45 45 0 45 0 0 -45z m100 0 l0 -45 -45 0 -45 0 0 45 0 45 45 0
45 0 0 -45z m100 0 l0 -45 -45 0 -45 0 0 45 0 45 45 0 45 0 0 -45z m100 0 l0
-45 -45 0 -45 0 0 45 0 45 45 0 45 0 0 -45z m200 -50 l0 -95 -95 0 -95 0 0 95
0 95 95 0 95 0 0 -95z m200 0 l0 -95 -95 0 -95 0 0 95 0 95 95 0 95 0 0 -95z
m-4650 25 c0 -13 -7 -20 -20 -20 -13 0 -20 7 -20 20 0 13 7 20 20 20 13 0 20
-7 20 -20z m50 0 c0 -13 -7 -20 -20 -20 -13 0 -20 7 -20 20 0 13 7 20 20 20
13 0 20 -7 20 -20z m50 0 c0 -13 -7 -20 -20 -20 -13 0 -20 7 -20 20 0 13 7 20
20 20 13 0 20 -7 20 -20z m1200 0 c0 -13 -7 -20 -20 -20 -13 0 -20 7 -20 20 0
13 7 20 20 20 13 0 20 -7 20 -20z m600 0 c0 -13 -7 -20 -20 -20 -13 0 -20 7
-20 20 0 13 7 20 20 20 13 0 20 -7 20 -20z m1150 0 c0 -13 -7 -20 -20 -20 -13
0 -20 7 -20 20 0 13 7 20 20 20 13 0 20 -7 20 -20z m300 -5 c0 -20 5 -25 25
-25 18 0 25 -5 25 -20 0 -17 -7 -20 -50 -20 -47 0 -50 -2 -50 -25 0 -20 -5
-25 -26 -25 -24 0 -26 3 -20 31 3 17 6 38 6 45 0 8 10 14 25 14 20 0 25 5 25
25 0 18 5 25 20 25 15 0 20 -7 20 -25z m150 5 c0 -13 -7 -20 -20 -20 -13 0
-20 7 -20 20 0 13 7 20 20 20 13 0 20 -7 20 -20z m50 0 c0 -13 -7 -20 -20 -20
-13 0 -20 7 -20 20 0 13 7 20 20 20 13 0 20 -7 20 -20z m-3300 -51 c0 -24 4
-29 25 -29 18 0 25 -5 25 -20 0 -19 -7 -20 -120 -20 -111 0 -120 1 -120 19 0
14 10 20 41 25 22 4 44 4 49 1 6 -3 7 1 4 9 -12 31 3 44 50 44 44 0 46 -1 46
-29z m-700 -24 l0 -45 -45 0 -45 0 0 45 0 45 45 0 45 0 0 -45z m100 0 l0 -45
-45 0 -45 0 0 45 0 45 45 0 45 0 0 -45z m300 25 c0 -13 -7 -20 -20 -20 -13 0
-20 7 -20 20 0 13 7 20 20 20 13 0 20 -7 20 -20z m50 0 c0 -13 -7 -20 -20 -20
-13 0 -20 7 -20 20 0 13 7 20 20 20 13 0 20 -7 20 -20z m50 0 c0 -13 -7 -20
-20 -20 -13 0 -20 7 -20 20 0 13 7 20 20 20 13 0 20 -7 20 -20z m50 0 c0 -13
-7 -20 -20 -20 -13 0 -20 7 -20 20 0 13 7 20 20 20 13 0 20 -7 20 -20z m3000
0 c0 -13 -7 -20 -20 -20 -13 0 -20 7 -20 20 0 13 7 20 20 20 13 0 20 -7 20
-20z m350 0 c0 -13 -7 -20 -20 -20 -13 0 -20 7 -20 20 0 13 7 20 20 20 13 0
20 -7 20 -20z m50 0 c0 -13 -7 -20 -20 -20 -13 0 -20 7 -20 20 0 13 7 20 20
20 13 0 20 -7 20 -20z m50 0 c0 -13 -7 -20 -20 -20 -13 0 -20 7 -20 20 0 13 7
20 20 20 13 0 20 -7 20 -20z m50 0 c0 -13 -7 -20 -20 -20 -13 0 -20 7 -20 20
0 13 7 20 20 20 13 0 20 -7 20 -20z m50 0 c0 -13 -7 -20 -20 -20 -13 0 -20 7
-20 20 0 13 7 20 20 20 13 0 20 -7 20 -20z m100 -25 l0 -45 -45 0 -45 0 0 45
0 45 45 0 45 0 0 -45z m100 0 l0 -45 -45 0 -45 0 0 45 0 45 45 0 45 0 0 -45z
m100 0 l0 -45 -45 0 -45 0 0 45 0 45 45 0 45 0 0 -45z m100 0 l0 -45 -45 0
-45 0 0 45 0 45 45 0 45 0 0 -45z m100 0 l0 -45 -45 0 -45 0 0 45 0 45 45 0
45 0 0 -45z m100 0 l0 -45 -45 0 -45 0 0 45 0 45 45 0 45 0 0 -45z m-4300 -25
c0 -13 -7 -20 -20 -20 -13 0 -20 7 -20 20 0 13 7 20 20 20 13 0 20 -7 20 -20z
m50 0 c0 -13 -7 -20 -20 -20 -13 0 -20 7 -20 20 0 13 7 20 20 20 13 0 20 -7
20 -20z m50 0 c0 -13 -7 -20 -20 -20 -13 0 -20 7 -20 20 0 13 7 20 20 20 13 0
20 -7 20 -20z m1850 0 c0 -13 -7 -20 -20 -20 -13 0 -20 7 -20 20 0 13 7 20 20
20 13 0 20 -7 20 -20z m750 0 c0 -13 -7 -20 -20 -20 -13 0 -20 7 -20 20 0 13
7 20 20 20 13 0 20 -7 20 -20z m50 0 c0 -15 7 -20 25 -20 23 0 25 -3 25 -50
l0 -50 -95 0 -95 0 0 45 0 45 50 0 c47 0 50 2 50 25 0 18 5 25 20 25 13 0 20
-7 20 -20z m400 0 c0 -13 -7 -20 -20 -20 -13 0 -20 7 -20 20 0 13 7 20 20 20
13 0 20 -7 20 -20z m250 0 c0 -13 -7 -20 -20 -20 -13 0 -20 7 -20 20 0 13 7
20 20 20 13 0 20 -7 20 -20z m100 0 c0 -13 -7 -20 -20 -20 -13 0 -20 7 -20 20
0 13 7 20 20 20 13 0 20 -7 20 -20z m50 0 c0 -13 -7 -20 -20 -20 -13 0 -20 7
-20 20 0 13 7 20 20 20 13 0 20 -7 20 -20z m50 0 c0 -13 -7 -20 -20 -20 -13 0
-20 7 -20 20 0 13 7 20 20 20 13 0 20 -7 20 -20z m50 0 c0 -13 -7 -20 -20 -20
-13 0 -20 7 -20 20 0 13 7 20 20 20 13 0 20 -7 20 -20z m50 0 c0 -13 -7 -20
-20 -20 -13 0 -20 7 -20 20 0 13 7 20 20 20 13 0 20 -7 20 -20z m-2250 -10 c0
-5 -4 -10 -10 -10 -5 0 -10 5 -10 10 0 6 5 10 10 10 6 0 10 -4 10 -10z m900
-39 c0 -25 3 -28 25 -23 23 4 25 1 26 -29 0 -26 2 -30 8 -15 7 18 8 18 14 2 6
-16 17 -17 92 -11 l85 6 2 -108 c1 -59 3 -84 5 -55 l4 52 45 0 44 0 0 -45 c0
-41 -2 -45 -25 -45 -20 0 -25 -5 -25 -25 0 -20 -5 -25 -27 -26 l-28 -2 28 -4
c37 -6 39 -43 2 -43 l-25 0 0 -105 0 -105 25 0 c18 0 25 -5 25 -20 0 -15 -7
-20 -25 -20 -24 0 -25 -2 -25 -75 l0 -75 -50 0 -50 0 0 -50 0 -50 -95 0 c-87
0 -95 2 -95 19 0 14 8 21 28 24 24 4 24 4 -7 6 -30 1 -33 4 -29 26 5 24 3 25
-43 25 l-49 0 0 44 0 45 53 4 52 3 -57 2 -58 2 0 40 c0 25 -5 40 -12 41 -7 0
-4 4 7 9 17 7 17 9 3 9 -12 1 -18 9 -18 26 0 16 -6 25 -16 25 -12 0 -15 7 -12
25 4 21 1 25 -18 25 -37 0 -33 40 4 41 16 1 20 3 10 6 -11 3 -18 14 -18 29 0
23 -3 24 -60 24 l-60 0 0 45 0 45 53 2 52 2 -52 3 -53 4 0 45 0 44 53 1 c28 1
40 4 25 6 -36 5 -40 42 -5 44 l22 2 -22 4 c-33 6 -31 43 2 43 23 0 25 3 25 50
l0 50 45 0 c40 0 45 -3 45 -22 0 -21 6 -23 55 -26 45 -2 54 0 49 13 -9 23 3
45 26 45 15 0 20 -7 20 -29z m-3550 -26 l0 -45 -45 0 -45 0 0 45 0 45 45 0 45
0 0 -45z m800 0 l0 -45 -45 0 -45 0 0 45 0 45 45 0 45 0 0 -45z m100 0 l0 -45
-45 0 -45 0 0 45 0 45 45 0 45 0 0 -45z m300 0 l0 -45 -45 0 -45 0 0 45 0 45
45 0 45 0 0 -45z m50 25 c0 -13 -7 -20 -20 -20 -13 0 -20 7 -20 20 0 13 7 20
20 20 13 0 20 -7 20 -20z m50 0 c0 -13 -7 -20 -20 -20 -13 0 -20 7 -20 20 0
13 7 20 20 20 13 0 20 -7 20 -20z m100 -25 l0 -45 -45 0 -45 0 0 45 0 45 45 0
45 0 0 -45z m50 25 c0 -13 -7 -20 -20 -20 -13 0 -20 7 -20 20 0 13 7 20 20 20
13 0 20 -7 20 -20z m50 0 c0 -13 -7 -20 -20 -20 -13 0 -20 7 -20 20 0 13 7 20
20 20 13 0 20 -7 20 -20z m2550 0 c0 -13 -7 -20 -20 -20 -13 0 -20 7 -20 20 0
13 7 20 20 20 13 0 20 -7 20 -20z m250 0 c0 -13 -7 -20 -20 -20 -13 0 -20 7
-20 20 0 13 7 20 20 20 13 0 20 -7 20 -20z m50 0 c0 -13 -7 -20 -20 -20 -13 0
-20 7 -20 20 0 13 7 20 20 20 13 0 20 -7 20 -20z m350 0 c0 -13 -7 -20 -20
-20 -13 0 -20 7 -20 20 0 13 7 20 20 20 13 0 20 -7 20 -20z m100 0 c0 -13 -7
-20 -20 -20 -13 0 -20 7 -20 20 0 13 7 20 20 20 13 0 20 -7 20 -20z m100 -25
l0 -45 -45 0 -45 0 0 45 0 45 45 0 45 0 0 -45z m200 -50 l0 -95 -95 0 -95 0 0
95 0 95 95 0 95 0 0 -95z m100 50 l0 -45 -45 0 -45 0 0 45 0 45 45 0 45 0 0
-45z m100 0 l0 -45 -45 0 -45 0 0 45 0 45 45 0 45 0 0 -45z m100 0 l0 -45 -45
0 -45 0 0 45 0 45 45 0 45 0 0 -45z m100 0 l0 -45 -45 0 -45 0 0 45 0 45 45 0
45 0 0 -45z m200 -50 l0 -95 -95 0 -95 0 0 95 0 95 95 0 95 0 0 -95z m200 0
l0 -95 -95 0 -95 0 0 95 0 95 95 0 95 0 0 -95z m-1789 37 c-6 -2 -11 -10 -11
-18 0 -8 -9 -14 -20 -14 -13 0 -20 7 -20 20 0 15 7 20 25 20 17 0 25 6 26 18
1 14 2 14 6 -3 3 -10 0 -21 -6 -23z m39 28 c0 -5 -4 -10 -10 -10 -5 0 -10 5
-10 10 0 6 5 10 10 10 6 0 10 -4 10 -10z m600 0 c0 -5 -4 -10 -10 -10 -5 0
-10 5 -10 10 0 6 5 10 10 10 6 0 10 -4 10 -10z m-3500 -40 c0 -13 -7 -20 -20
-20 -13 0 -20 7 -20 20 0 13 7 20 20 20 13 0 20 -7 20 -20z m50 0 c0 -13 -7
-20 -20 -20 -13 0 -20 7 -20 20 0 13 7 20 20 20 13 0 20 -7 20 -20z m150 0 c0
-13 -7 -20 -20 -20 -13 0 -20 7 -20 20 0 13 7 20 20 20 13 0 20 -7 20 -20z
m50 0 c0 -13 -7 -20 -20 -20 -13 0 -20 7 -20 20 0 13 7 20 20 20 13 0 20 -7
20 -20z m2800 0 c0 -13 -7 -20 -20 -20 -13 0 -20 7 -20 20 0 13 7 20 20 20 13
0 20 -7 20 -20z m50 0 c0 -13 -7 -20 -20 -20 -13 0 -20 7 -20 20 0 13 7 20 20
20 13 0 20 -7 20 -20z m350 0 c0 -13 -7 -20 -20 -20 -13 0 -20 7 -20 20 0 13
7 20 20 20 13 0 20 -7 20 -20z m50 0 c0 -13 -7 -20 -20 -20 -13 0 -20 7 -20
20 0 13 7 20 20 20 13 0 20 -7 20 -20z m50 0 c0 -13 -7 -20 -20 -20 -13 0 -20
7 -20 20 0 13 7 20 20 20 13 0 20 -7 20 -20z m-4800 -75 l0 -45 -45 0 -45 0 0
45 0 45 45 0 45 0 0 -45z m800 0 l0 -45 -45 0 -45 0 0 45 0 45 45 0 45 0 0
-45z m100 0 l0 -45 -45 0 -45 0 0 45 0 45 45 0 45 0 0 -45z m300 0 l0 -45 -45
0 -45 0 0 45 0 45 45 0 45 0 0 -45z m100 0 l0 -45 -45 0 -45 0 0 45 0 45 45 0
45 0 0 -45z m50 25 c0 -13 -7 -20 -20 -20 -13 0 -20 7 -20 20 0 13 7 20 20 20
13 0 20 -7 20 -20z m50 0 c0 -13 -7 -20 -20 -20 -13 0 -20 7 -20 20 0 13 7 20
20 20 13 0 20 -7 20 -20z m100 -25 l0 -45 -45 0 -45 0 0 45 0 45 45 0 45 0 0
-45z m1750 25 c0 -13 -7 -20 -20 -20 -13 0 -20 7 -20 20 0 13 7 20 20 20 13 0
20 -7 20 -20z m650 -25 l0 -45 -45 0 -45 0 0 45 0 45 45 0 45 0 0 -45z m450
25 c0 -13 -7 -20 -20 -20 -13 0 -20 7 -20 20 0 13 7 20 20 20 13 0 20 -7 20
-20z m350 0 c0 -13 -7 -20 -20 -20 -13 0 -20 7 -20 20 0 13 7 20 20 20 13 0
20 -7 20 -20z m100 -25 l0 -45 -45 0 -45 0 0 45 0 45 45 0 45 0 0 -45z m100 0
l0 -45 -45 0 -45 0 0 45 0 45 45 0 45 0 0 -45z m300 0 l0 -45 -45 0 -45 0 0
45 0 45 45 0 45 0 0 -45z m100 0 l0 -45 -45 0 -45 0 0 45 0 45 45 0 45 0 0
-45z m100 0 l0 -45 -45 0 -45 0 0 45 0 45 45 0 45 0 0 -45z m100 0 l0 -45 -45
0 -45 0 0 45 0 45 45 0 45 0 0 -45z m-4150 -25 c0 -13 -7 -20 -20 -20 -13 0
-20 7 -20 20 0 13 7 20 20 20 13 0 20 -7 20 -20z m50 0 c0 -13 -7 -20 -20 -20
-13 0 -20 7 -20 20 0 13 7 20 20 20 13 0 20 -7 20 -20z m1850 0 c0 -13 -7 -20
-20 -20 -13 0 -20 7 -20 20 0 13 7 20 20 20 13 0 20 -7 20 -20z m1100 0 c0
-13 -7 -20 -20 -20 -13 0 -20 7 -20 20 0 13 7 20 20 20 13 0 20 -7 20 -20z
m350 0 c0 -13 -7 -20 -20 -20 -13 0 -20 7 -20 20 0 13 7 20 20 20 13 0 20 -7
20 -20z m-4700 -75 l0 -45 -45 0 -45 0 0 45 0 45 45 0 45 0 0 -45z m500 0 l0
-45 -45 0 -45 0 0 45 0 45 45 0 45 0 0 -45z m100 0 l0 -45 -45 0 -45 0 0 45 0
45 45 0 45 0 0 -45z m100 0 l0 -45 -45 0 -45 0 0 45 0 45 45 0 45 0 0 -45z
m200 -50 l0 -95 -95 0 -95 0 0 95 0 95 95 0 95 0 0 -95z m100 50 l0 -45 -45 0
-45 0 0 45 0 45 45 0 45 0 0 -45z m100 0 l0 -45 -45 0 -45 0 0 45 0 45 45 0
45 0 0 -45z m50 25 c0 -13 -7 -20 -20 -20 -13 0 -20 7 -20 20 0 13 7 20 20 20
13 0 20 -7 20 -20z m50 -25 l0 -45 -45 0 c-38 0 -45 3 -45 20 0 15 7 20 25 20
20 0 25 5 25 25 0 18 5 25 20 25 17 0 20 -7 20 -45z m100 -50 l0 -95 -70 0
c-63 0 -70 2 -70 20 0 15 7 20 28 21 l27 2 -27 4 c-38 6 -40 43 -3 43 23 0 25
3 25 50 l0 50 45 0 45 0 0 -95z m50 75 c0 -13 -7 -20 -20 -20 -13 0 -20 7 -20
20 0 13 7 20 20 20 13 0 20 -7 20 -20z m50 0 c0 -13 -7 -20 -20 -20 -13 0 -20
7 -20 20 0 13 7 20 20 20 13 0 20 -7 20 -20z m50 0 c0 -13 -7 -20 -20 -20 -13
0 -20 7 -20 20 0 13 7 20 20 20 13 0 20 -7 20 -20z m50 0 c0 -13 -7 -20 -20
-20 -13 0 -20 7 -20 20 0 13 7 20 20 20 13 0 20 -7 20 -20z m2500 -25 l0 -45
-45 0 -45 0 0 45 0 45 45 0 45 0 0 -45z m300 25 c0 -13 -7 -20 -20 -20 -13 0
-20 7 -20 20 0 13 7 20 20 20 13 0 20 -7 20 -20z m50 0 c0 -13 -7 -20 -20 -20
-13 0 -20 7 -20 20 0 13 7 20 20 20 13 0 20 -7 20 -20z m450 -25 l0 -45 -45 0
-45 0 0 45 0 45 45 0 45 0 0 -45z m100 0 l0 -45 -45 0 -45 0 0 45 0 45 45 0
45 0 0 -45z m200 -50 l0 -95 -95 0 -95 0 0 95 0 95 95 0 95 0 0 -95z m100 50
l0 -45 -45 0 -45 0 0 45 0 45 45 0 45 0 0 -45z m100 0 l0 -45 -45 0 -45 0 0
45 0 45 45 0 45 0 0 -45z m100 0 l0 -45 -45 0 -45 0 0 45 0 45 45 0 45 0 0
-45z m100 0 l0 -45 -45 0 -45 0 0 45 0 45 45 0 45 0 0 -45z m200 -50 l0 -95
-95 0 -95 0 0 95 0 95 95 0 95 0 0 -95z m200 0 l0 -95 -95 0 -95 0 0 95 0 95
95 0 95 0 0 -95z m-1250 65 c0 -5 -4 -10 -10 -10 -5 0 -10 5 -10 10 0 6 5 10
10 10 6 0 10 -4 10 -10z m50 0 c0 -5 -4 -10 -10 -10 -5 0 -10 5 -10 10 0 6 5
10 10 10 6 0 10 -4 10 -10z m-3350 -40 c0 -13 -7 -20 -20 -20 -13 0 -20 7 -20
20 0 13 7 20 20 20 13 0 20 -7 20 -20z m50 0 c0 -13 -7 -20 -20 -20 -13 0 -20
7 -20 20 0 13 7 20 20 20 13 0 20 -7 20 -20z m50 0 c0 -13 -7 -20 -20 -20 -13
0 -20 7 -20 20 0 13 7 20 20 20 13 0 20 -7 20 -20z m50 0 c0 -13 -7 -20 -20
-20 -13 0 -20 7 -20 20 0 13 7 20 20 20 13 0 20 -7 20 -20z m2800 0 c0 -13 -7
-20 -20 -20 -13 0 -20 7 -20 20 0 13 7 20 20 20 13 0 20 -7 20 -20z m50 0 c0
-13 -7 -20 -20 -20 -13 0 -20 7 -20 20 0 13 7 20 20 20 13 0 20 -7 20 -20z
m300 0 c0 -13 -7 -20 -20 -20 -13 0 -20 7 -20 20 0 13 7 20 20 20 13 0 20 -7
20 -20z m50 0 c0 -13 -7 -20 -20 -20 -13 0 -20 7 -20 20 0 13 7 20 20 20 13 0
20 -7 20 -20z m-4700 -75 l0 -45 -45 0 -45 0 0 45 0 45 45 0 45 0 0 -45z
m1000 0 l0 -45 -45 0 -45 0 0 45 0 45 45 0 45 0 0 -45z m100 0 l0 -45 -45 0
-45 0 0 45 0 45 45 0 45 0 0 -45z m50 25 c0 -13 -7 -20 -20 -20 -13 0 -20 7
-20 20 0 13 7 20 20 20 13 0 20 -7 20 -20z m250 0 c0 -13 -7 -20 -20 -20 -13
0 -20 7 -20 20 0 13 7 20 20 20 13 0 20 -7 20 -20z m100 -25 l0 -45 -45 0 -45
0 0 45 0 45 45 0 45 0 0 -45z m100 0 l0 -45 -45 0 -45 0 0 45 0 45 45 0 45 0
0 -45z m2300 25 c0 -13 -7 -20 -20 -20 -13 0 -20 7 -20 20 0 13 7 20 20 20 13
0 20 -7 20 -20z m50 0 c0 -13 -7 -20 -20 -20 -13 0 -20 7 -20 20 0 13 7 20 20
20 13 0 20 -7 20 -20z m50 0 c0 -13 -7 -20 -20 -20 -13 0 -20 7 -20 20 0 13 7
20 20 20 13 0 20 -7 20 -20z m300 -25 l0 -45 -45 0 -45 0 0 45 0 45 45 0 45 0
0 -45z m50 25 c0 -13 -7 -20 -20 -20 -13 0 -20 7 -20 20 0 13 7 20 20 20 13 0
20 -7 20 -20z m350 -25 l0 -45 -45 0 -45 0 0 45 0 45 45 0 45 0 0 -45z m100 0
l0 -45 -45 0 -45 0 0 45 0 45 45 0 45 0 0 -45z m100 0 l0 -45 -45 0 -45 0 0
45 0 45 45 0 45 0 0 -45z m250 25 c0 -13 -7 -20 -20 -20 -13 0 -20 7 -20 20 0
13 7 20 20 20 13 0 20 -7 20 -20z m50 0 c0 -13 -7 -20 -20 -20 -13 0 -20 7
-20 20 0 13 7 20 20 20 13 0 20 -7 20 -20z m100 -25 l0 -45 -45 0 -45 0 0 45
0 45 45 0 45 0 0 -45z m100 0 l0 -45 -45 0 -45 0 0 45 0 45 45 0 45 0 0 -45z
m100 0 l0 -45 -45 0 -45 0 0 45 0 45 45 0 45 0 0 -45z m-4150 15 c0 -5 -4 -10
-10 -10 -5 0 -10 5 -10 10 0 6 5 10 10 10 6 0 10 -4 10 -10z m-200 -40 c0 -13
-7 -20 -20 -20 -13 0 -20 7 -20 20 0 13 7 20 20 20 13 0 20 -7 20 -20z m200 0
c0 -13 -7 -20 -20 -20 -13 0 -20 7 -20 20 0 13 7 20 20 20 13 0 20 -7 20 -20z
m50 0 c0 -13 -7 -20 -20 -20 -13 0 -20 7 -20 20 0 13 7 20 20 20 13 0 20 -7
20 -20z m2500 0 c0 -13 -7 -20 -20 -20 -13 0 -20 7 -20 20 0 13 7 20 20 20 13
0 20 -7 20 -20z m50 0 c0 -13 -7 -20 -20 -20 -13 0 -20 7 -20 20 0 13 7 20 20
20 13 0 20 -7 20 -20z m50 0 c0 -13 -7 -20 -20 -20 -13 0 -20 7 -20 20 0 13 7
20 20 20 13 0 20 -7 20 -20z m350 0 c0 -13 -7 -20 -20 -20 -13 0 -20 7 -20 20
0 13 7 20 20 20 13 0 20 -7 20 -20z m250 0 c0 -13 -7 -20 -20 -20 -13 0 -20 7
-20 20 0 13 7 20 20 20 13 0 20 -7 20 -20z m550 0 c0 -13 -7 -20 -20 -20 -13
0 -20 7 -20 20 0 13 7 20 20 20 13 0 20 -7 20 -20z m50 0 c0 -13 -7 -20 -20
-20 -13 0 -20 7 -20 20 0 13 7 20 20 20 13 0 20 -7 20 -20z m-5200 -75 l0 -45
-45 0 -45 0 0 45 0 45 45 0 45 0 0 -45z m300 0 l0 -45 -45 0 -45 0 0 45 0 45
45 0 45 0 0 -45z m600 -50 l0 -95 -95 0 -95 0 0 95 0 95 95 0 95 0 0 -95z
m200 0 l0 -95 -95 0 -95 0 0 95 0 95 95 0 95 0 0 -95z m100 50 l0 -45 -45 0
-45 0 0 45 0 45 45 0 45 0 0 -45z m100 0 l0 -45 -45 0 -45 0 0 45 0 45 45 0
45 0 0 -45z m100 0 l0 -45 -45 0 -45 0 0 45 0 45 45 0 45 0 0 -45z m50 25 c0
-13 -7 -20 -20 -20 -13 0 -20 7 -20 20 0 13 7 20 20 20 13 0 20 -7 20 -20z
m50 0 c0 -13 -7 -20 -20 -20 -13 0 -20 7 -20 20 0 13 7 20 20 20 13 0 20 -7
20 -20z m100 -25 l0 -45 -45 0 -45 0 0 45 0 45 45 0 45 0 0 -45z m1600 0 l0
-45 -45 0 -45 0 0 45 0 45 45 0 45 0 0 -45z m50 25 c0 -13 -7 -20 -20 -20 -13
0 -20 7 -20 20 0 13 7 20 20 20 13 0 20 -7 20 -20z m50 0 c0 -13 -7 -20 -20
-20 -13 0 -20 7 -20 20 0 13 7 20 20 20 13 0 20 -7 20 -20z m600 -25 l0 -45
-45 0 -45 0 0 45 0 45 45 0 45 0 0 -45z m100 0 l0 -45 -45 0 -45 0 0 45 0 45
45 0 45 0 0 -45z m300 0 l0 -45 -45 0 -45 0 0 45 0 45 45 0 45 0 0 -45z m50
25 c0 -13 -7 -20 -20 -20 -13 0 -20 7 -20 20 0 13 7 20 20 20 13 0 20 -7 20
-20z m250 -25 l0 -45 -45 0 -45 0 0 45 0 45 45 0 45 0 0 -45z m50 25 c0 -13
-7 -20 -20 -20 -13 0 -20 7 -20 20 0 13 7 20 20 20 13 0 20 -7 20 -20z m50 0
c0 -13 -7 -20 -20 -20 -13 0 -20 7 -20 20 0 13 7 20 20 20 13 0 20 -7 20 -20z
m200 -75 l0 -95 -95 0 -95 0 0 95 0 95 95 0 95 0 0 -95z m100 50 l0 -45 -45 0
-45 0 0 45 0 45 45 0 45 0 0 -45z m100 0 l0 -45 -45 0 -45 0 0 45 0 45 45 0
45 0 0 -45z m200 -50 l0 -95 -95 0 -95 0 0 95 0 95 95 0 95 0 0 -95z m200 0
l0 -95 -95 0 -95 0 0 95 0 95 95 0 95 0 0 -95z m200 0 l0 -95 -95 0 -95 0 0
95 0 95 95 0 95 0 0 -95z m200 0 l0 -95 -95 0 -95 0 0 95 0 95 95 0 95 0 0
-95z m-4450 25 c0 -13 -7 -20 -20 -20 -13 0 -20 7 -20 20 0 13 7 20 20 20 13
0 20 -7 20 -20z m50 0 c0 -13 -7 -20 -20 -20 -13 0 -20 7 -20 20 0 13 7 20 20
20 13 0 20 -7 20 -20z m1750 0 c0 -13 -7 -20 -20 -20 -13 0 -20 7 -20 20 0 13
7 20 20 20 13 0 20 -7 20 -20z m50 0 c0 -13 -7 -20 -20 -20 -13 0 -20 7 -20
20 0 13 7 20 20 20 13 0 20 -7 20 -20z m1400 0 c0 -13 -7 -20 -20 -20 -13 0
-20 7 -20 20 0 13 7 20 20 20 13 0 20 -7 20 -20z m-50 -10 c0 -5 -4 -10 -10
-10 -5 0 -10 5 -10 10 0 6 5 10 10 10 6 0 10 -4 10 -10z m-4650 -65 l0 -45
-45 0 -45 0 0 45 0 45 45 0 45 0 0 -45z m300 0 l0 -45 -45 0 -45 0 0 45 0 45
45 0 45 0 0 -45z m900 0 l0 -45 -45 0 -45 0 0 45 0 45 45 0 45 0 0 -45z m100
0 l0 -45 -45 0 -45 0 0 45 0 45 45 0 45 0 0 -45z m100 0 l0 -45 -45 0 -45 0 0
45 0 45 45 0 45 0 0 -45z m100 0 l0 -45 -45 0 -45 0 0 45 0 45 45 0 45 0 0
-45z m100 0 l0 -45 -45 0 -45 0 0 45 0 45 45 0 45 0 0 -45z m100 0 l0 -45 -45
0 -45 0 0 45 0 45 45 0 45 0 0 -45z m1450 25 c0 -13 -7 -20 -20 -20 -13 0 -20
7 -20 20 0 13 7 20 20 20 13 0 20 -7 20 -20z m100 0 c0 -13 -7 -20 -20 -20
-13 0 -20 7 -20 20 0 13 7 20 20 20 13 0 20 -7 20 -20z m650 -25 l0 -45 -45 0
-45 0 0 45 0 45 45 0 45 0 0 -45z m100 0 l0 -45 -45 0 -45 0 0 45 0 45 45 0
45 0 0 -45z m250 25 c0 -13 -7 -20 -20 -20 -13 0 -20 7 -20 20 0 13 7 20 20
20 13 0 20 -7 20 -20z m50 0 c0 -13 -7 -20 -20 -20 -13 0 -20 7 -20 20 0 13 7
20 20 20 13 0 20 -7 20 -20z m250 0 c0 -13 -7 -20 -20 -20 -13 0 -20 7 -20 20
0 13 7 20 20 20 13 0 20 -7 20 -20z m100 0 c0 -13 -7 -20 -20 -20 -13 0 -20 7
-20 20 0 13 7 20 20 20 13 0 20 -7 20 -20z m50 0 c0 -13 -7 -20 -20 -20 -13 0
-20 7 -20 20 0 13 7 20 20 20 13 0 20 -7 20 -20z m300 -25 l0 -45 -45 0 -45 0
0 45 0 45 45 0 45 0 0 -45z m100 0 l0 -45 -45 0 -45 0 0 45 0 45 45 0 45 0 0
-45z m-1900 15 c0 -5 -4 -10 -10 -10 -5 0 -10 5 -10 10 0 6 5 10 10 10 6 0 10
-4 10 -10z m1400 0 c0 -5 -4 -10 -10 -10 -5 0 -10 5 -10 10 0 6 5 10 10 10 6
0 10 -4 10 -10z m-1450 -40 c0 -13 -7 -20 -20 -20 -13 0 -20 7 -20 20 0 13 7
20 20 20 13 0 20 -7 20 -20z m50 0 c0 -13 -7 -20 -20 -20 -13 0 -20 7 -20 20
0 13 7 20 20 20 13 0 20 -7 20 -20z m50 0 c0 -13 -7 -20 -20 -20 -13 0 -20 7
-20 20 0 13 7 20 20 20 13 0 20 -7 20 -20z m1000 0 c0 -13 -7 -20 -20 -20 -13
0 -20 7 -20 20 0 13 7 20 20 20 13 0 20 -7 20 -20z m50 -10 c0 -34 -5 -37 -26
-16 -21 21 -17 46 6 46 16 0 20 -7 20 -30z m250 10 c0 -13 -7 -20 -20 -20 -13
0 -20 7 -20 20 0 13 7 20 20 20 13 0 20 -7 20 -20z m50 0 c0 -13 -7 -20 -20
-20 -13 0 -20 7 -20 20 0 13 7 20 20 20 13 0 20 -7 20 -20z m50 0 c0 -13 -7
-20 -20 -20 -13 0 -20 7 -20 20 0 13 7 20 20 20 13 0 20 -7 20 -20z m50 0 c0
-13 -7 -20 -20 -20 -13 0 -20 7 -20 20 0 13 7 20 20 20 13 0 20 -7 20 -20z
m-4600 -125 l0 -95 -95 0 -95 0 0 95 0 95 95 0 95 0 0 -95z m200 0 l0 -95 -95
0 -95 0 0 95 0 95 95 0 95 0 0 -95z m600 0 l0 -95 -95 0 -95 0 0 95 0 95 95 0
95 0 0 -95z m100 50 l0 -45 -45 0 -45 0 0 45 0 45 45 0 45 0 0 -45z m100 0 l0
-45 -45 0 -45 0 0 45 0 45 45 0 45 0 0 -45z m200 -50 l0 -95 -95 0 -95 0 0 95
0 95 95 0 95 0 0 -95z m100 50 l0 -45 -45 0 -45 0 0 45 0 45 45 0 45 0 0 -45z
m100 0 l0 -45 -45 0 -45 0 0 45 0 45 45 0 45 0 0 -45z m50 25 c0 -13 -7 -20
-20 -20 -13 0 -20 7 -20 20 0 13 7 20 20 20 13 0 20 -7 20 -20z m50 0 c0 -13
-7 -20 -20 -20 -13 0 -20 7 -20 20 0 13 7 20 20 20 13 0 20 -7 20 -20z m100
-25 l0 -45 -45 0 -45 0 0 45 0 45 45 0 45 0 0 -45z m1500 0 l0 -45 -45 0 -45
0 0 45 0 45 45 0 45 0 0 -45z m700 25 c0 -13 -7 -20 -20 -20 -13 0 -20 7 -20
20 0 13 7 20 20 20 13 0 20 -7 20 -20z m300 0 c0 -13 -7 -20 -20 -20 -13 0
-20 7 -20 20 0 13 7 20 20 20 13 0 20 -7 20 -20z m50 0 c0 -13 -7 -20 -20 -20
-13 0 -20 7 -20 20 0 13 7 20 20 20 13 0 20 -7 20 -20z m250 0 c0 -13 -7 -20
-20 -20 -13 0 -20 7 -20 20 0 13 7 20 20 20 13 0 20 -7 20 -20z m50 0 c0 -13
-7 -20 -20 -20 -13 0 -20 7 -20 20 0 13 7 20 20 20 13 0 20 -7 20 -20z m150
-25 l0 -45 -45 0 -45 0 0 45 0 45 45 0 45 0 0 -45z m100 0 l0 -45 -45 0 -45 0
0 45 0 45 45 0 45 0 0 -45z m100 0 l0 -45 -45 0 -45 0 0 45 0 45 45 0 45 0 0
-45z m200 -50 l0 -95 -95 0 -95 0 0 95 0 95 95 0 95 0 0 -95z m200 0 l0 -95
-95 0 -95 0 0 95 0 95 95 0 95 0 0 -95z m200 0 l0 -95 -95 0 -95 0 0 95 0 95
95 0 95 0 0 -95z m100 50 l0 -45 -45 0 -45 0 0 45 0 45 45 0 45 0 0 -45z m100
0 l0 -45 -45 0 -45 0 0 45 0 45 45 0 45 0 0 -45z m200 -50 l0 -95 -95 0 -95 0
0 95 0 95 95 0 95 0 0 -95z m-1600 65 c0 -5 -4 -10 -10 -10 -5 0 -10 5 -10 10
0 6 5 10 10 10 6 0 10 -4 10 -10z m300 0 c0 -5 -4 -10 -10 -10 -5 0 -10 5 -10
10 0 6 5 10 10 10 6 0 10 -4 10 -10z m-3050 -40 c0 -13 -7 -20 -20 -20 -13 0
-20 7 -20 20 0 13 7 20 20 20 13 0 20 -7 20 -20z m50 0 c0 -13 -7 -20 -20 -20
-13 0 -20 7 -20 20 0 13 7 20 20 20 13 0 20 -7 20 -20z m2250 0 c0 -13 -7 -20
-20 -20 -13 0 -20 7 -20 20 0 13 7 20 20 20 13 0 20 -7 20 -20z m50 0 c0 -13
-7 -20 -20 -20 -13 0 -20 7 -20 20 0 13 7 20 20 20 13 0 20 -7 20 -20z m300 0
c0 -13 -7 -20 -20 -20 -13 0 -20 7 -20 20 0 13 7 20 20 20 13 0 20 -7 20 -20z
m50 0 c0 -13 -7 -20 -20 -20 -13 0 -20 7 -20 20 0 13 7 20 20 20 13 0 20 -7
20 -20z m50 0 c0 -13 -7 -20 -20 -20 -13 0 -20 7 -20 20 0 13 7 20 20 20 13 0
20 -7 20 -20z m250 0 c0 -13 -7 -20 -20 -20 -13 0 -20 7 -20 20 0 13 7 20 20
20 13 0 20 -7 20 -20z m50 0 c0 -13 -7 -20 -20 -20 -13 0 -20 7 -20 20 0 13 7
20 20 20 13 0 20 -7 20 -20z m-100 -10 c0 -5 -4 -10 -10 -10 -5 0 -10 5 -10
10 0 6 5 10 10 10 6 0 10 -4 10 -10z m-4700 -65 l0 -45 -45 0 -45 0 0 45 0 45
45 0 45 0 0 -45z m100 0 l0 -45 -45 0 -45 0 0 45 0 45 45 0 45 0 0 -45z m1100
0 l0 -45 -45 0 -45 0 0 45 0 45 45 0 45 0 0 -45z m100 0 l0 -45 -45 0 -45 0 0
45 0 45 45 0 45 0 0 -45z m300 0 l0 -45 -45 0 -45 0 0 45 0 45 45 0 45 0 0
-45z m100 0 l0 -45 -45 0 -45 0 0 45 0 45 45 0 45 0 0 -45z m100 0 l0 -45 -45
0 -45 0 0 45 0 45 45 0 45 0 0 -45z m50 25 c0 -13 -7 -20 -20 -20 -13 0 -20 7
-20 20 0 13 7 20 20 20 13 0 20 -7 20 -20z m2250 -25 l0 -45 -45 0 -45 0 0 45
0 45 45 0 45 0 0 -45z m300 0 l0 -45 -45 0 -45 0 0 45 0 45 45 0 45 0 0 -45z
m100 0 l0 -45 -45 0 -45 0 0 45 0 45 45 0 45 0 0 -45z m150 25 c0 -13 -7 -20
-20 -20 -13 0 -20 7 -20 20 0 13 7 20 20 20 13 0 20 -7 20 -20z m100 0 c0 -13
-7 -20 -20 -20 -13 0 -20 7 -20 20 0 13 7 20 20 20 13 0 20 -7 20 -20z m50 0
c0 -13 -7 -20 -20 -20 -13 0 -20 7 -20 20 0 13 7 20 20 20 13 0 20 -7 20 -20z
m100 -25 l0 -45 -45 0 -45 0 0 45 0 45 45 0 45 0 0 -45z m100 0 l0 -45 -45 0
-45 0 0 45 0 45 45 0 45 0 0 -45z m100 0 l0 -45 -45 0 -45 0 0 45 0 45 45 0
45 0 0 -45z m700 0 l0 -45 -45 0 -45 0 0 45 0 45 45 0 45 0 0 -45z m100 0 l0
-45 -45 0 -45 0 0 45 0 45 45 0 45 0 0 -45z m-1200 15 c0 -5 -4 -10 -10 -10
-5 0 -10 5 -10 10 0 6 5 10 10 10 6 0 10 -4 10 -10z m-2850 -40 c0 -13 -7 -20
-20 -20 -13 0 -20 7 -20 20 0 13 7 20 20 20 13 0 20 -7 20 -20z m2800 0 c0
-13 -7 -20 -20 -20 -13 0 -20 7 -20 20 0 13 7 20 20 20 13 0 20 -7 20 -20z
m50 0 c0 -13 -7 -20 -20 -20 -13 0 -20 7 -20 20 0 13 7 20 20 20 13 0 20 -7
20 -20z m100 0 c0 -13 -7 -20 -20 -20 -13 0 -20 7 -20 20 0 13 7 20 20 20 13
0 20 -7 20 -20z m-50 -10 c0 -5 -4 -10 -10 -10 -5 0 -10 5 -10 10 0 6 5 10 10
10 6 0 10 -4 10 -10z m-4450 -115 l0 -95 -95 0 -95 0 0 95 0 95 95 0 95 0 0
-95z m200 0 l0 -95 -95 0 -95 0 0 95 0 95 95 0 95 0 0 -95z m500 50 l0 -45
-45 0 -45 0 0 45 0 45 45 0 45 0 0 -45z m100 0 l0 -45 -45 0 -45 0 0 45 0 45
45 0 45 0 0 -45z m100 0 l0 -45 -45 0 -45 0 0 45 0 45 45 0 45 0 0 -45z m100
0 l0 -45 -45 0 -45 0 0 45 0 45 45 0 45 0 0 -45z m100 0 l0 -45 -45 0 -45 0 0
45 0 45 45 0 45 0 0 -45z m100 0 l0 -45 -45 0 -45 0 0 45 0 45 45 0 45 0 0
-45z m100 0 l0 -45 -45 0 -45 0 0 45 0 45 45 0 45 0 0 -45z m100 0 l0 -45 -45
0 -45 0 0 45 0 45 45 0 45 0 0 -45z m100 0 l0 -45 -45 0 -45 0 0 45 0 45 45 0
45 0 0 -45z m100 0 l0 -45 -45 0 -45 0 0 45 0 45 45 0 45 0 0 -45z m1200 25
c0 -13 -7 -20 -20 -20 -13 0 -20 7 -20 20 0 13 7 20 20 20 13 0 20 -7 20 -20z
m100 0 c0 -13 -7 -20 -20 -20 -13 0 -20 7 -20 20 0 13 7 20 20 20 13 0 20 -7
20 -20z m100 -25 l0 -45 -45 0 -45 0 0 45 0 45 45 0 45 0 0 -45z m50 25 c0
-13 -7 -20 -20 -20 -13 0 -20 7 -20 20 0 13 7 20 20 20 13 0 20 -7 20 -20z
m650 -25 l0 -45 -45 0 -45 0 0 45 0 45 45 0 45 0 0 -45z m100 0 l0 -45 -45 0
-45 0 0 45 0 45 45 0 45 0 0 -45z m400 0 l0 -45 -45 0 -45 0 0 45 0 45 45 0
45 0 0 -45z m50 25 c0 -13 -7 -20 -20 -20 -13 0 -20 7 -20 20 0 13 7 20 20 20
13 0 20 -7 20 -20z m50 0 c0 -13 -7 -20 -20 -20 -13 0 -20 7 -20 20 0 13 7 20
20 20 13 0 20 -7 20 -20z m100 -25 l0 -45 -45 0 -45 0 0 45 0 45 45 0 45 0 0
-45z m200 -50 l0 -95 -95 0 -95 0 0 95 0 95 95 0 95 0 0 -95z m200 0 l0 -95
-95 0 -95 0 0 95 0 95 95 0 95 0 0 -95z m200 0 l0 -95 -95 0 -95 0 0 95 0 95
95 0 95 0 0 -95z m100 50 l0 -45 -45 0 -45 0 0 45 0 45 45 0 45 0 0 -45z m50
25 c0 -13 -7 -20 -20 -20 -13 0 -20 7 -20 20 0 13 7 20 20 20 13 0 20 -7 20
-20z m50 0 c0 -13 -7 -20 -20 -20 -13 0 -20 7 -20 20 0 13 7 20 20 20 13 0 20
-7 20 -20z m50 0 c0 -13 -7 -20 -20 -20 -13 0 -20 7 -20 20 0 13 7 20 20 20
13 0 20 -7 20 -20z m50 0 c0 -13 -7 -20 -20 -20 -13 0 -20 7 -20 20 0 13 7 20
20 20 13 0 20 -7 20 -20z m100 -25 l0 -45 -45 0 -45 0 0 45 0 45 45 0 45 0 0
-45z m100 0 l0 -45 -45 0 -45 0 0 45 0 45 45 0 45 0 0 -45z m50 25 c0 -13 -7
-20 -20 -20 -13 0 -20 7 -20 20 0 13 7 20 20 20 13 0 20 -7 20 -20z m50 0 c0
-13 -7 -20 -20 -20 -13 0 -20 7 -20 20 0 13 7 20 20 20 13 0 20 -7 20 -20z
m200 -75 l0 -95 -95 0 -95 0 0 95 0 95 95 0 95 0 0 -95z m-2950 65 c0 -5 -4
-10 -10 -10 -5 0 -10 5 -10 10 0 6 5 10 10 10 6 0 10 -4 10 -10z m1200 0 c0
-5 -4 -10 -10 -10 -5 0 -10 5 -10 10 0 6 5 10 10 10 6 0 10 -4 10 -10z m50 0
c0 -5 -4 -10 -10 -10 -5 0 -10 5 -10 10 0 6 5 10 10 10 6 0 10 -4 10 -10z
m-1250 -40 c0 -13 -7 -20 -20 -20 -13 0 -20 7 -20 20 0 13 7 20 20 20 13 0 20
-7 20 -20z m50 0 c0 -13 -7 -20 -20 -20 -13 0 -20 7 -20 20 0 13 7 20 20 20
13 0 20 -7 20 -20z m1150 0 c0 -13 -7 -20 -20 -20 -13 0 -20 7 -20 20 0 13 7
20 20 20 13 0 20 -7 20 -20z m50 0 c0 -13 -7 -20 -20 -20 -13 0 -20 7 -20 20
0 13 7 20 20 20 13 0 20 -7 20 -20z m150 0 c0 -13 -7 -20 -20 -20 -13 0 -20 7
-20 20 0 13 7 20 20 20 13 0 20 -7 20 -20z m50 0 c0 -13 -7 -20 -20 -20 -13 0
-20 7 -20 20 0 13 7 20 20 20 13 0 20 -7 20 -20z m850 0 c0 -13 -7 -20 -20
-20 -13 0 -20 7 -20 20 0 13 7 20 20 20 13 0 20 -7 20 -20z m50 0 c0 -13 -7
-20 -20 -20 -13 0 -20 7 -20 20 0 13 7 20 20 20 13 0 20 -7 20 -20z m50 0 c0
-13 -7 -20 -20 -20 -13 0 -20 7 -20 20 0 13 7 20 20 20 13 0 20 -7 20 -20z
m50 0 c0 -13 -7 -20 -20 -20 -13 0 -20 7 -20 20 0 13 7 20 20 20 13 0 20 -7
20 -20z m250 0 c0 -13 -7 -20 -20 -20 -13 0 -20 7 -20 20 0 13 7 20 20 20 13
0 20 -7 20 -20z m50 0 c0 -13 -7 -20 -20 -20 -13 0 -20 7 -20 20 0 13 7 20 20
20 13 0 20 -7 20 -20z m-4950 -50 c0 -13 -7 -20 -20 -20 -13 0 -20 7 -20 20 0
13 7 20 20 20 13 0 20 -7 20 -20z m50 0 c0 -13 -7 -20 -20 -20 -13 0 -20 7
-20 20 0 13 7 20 20 20 13 0 20 -7 20 -20z m100 -25 l0 -45 -45 0 -45 0 0 45
0 45 45 0 45 0 0 -45z m100 0 l0 -45 -45 0 -45 0 0 45 0 45 45 0 45 0 0 -45z
m100 0 l0 -45 -45 0 -45 0 0 45 0 45 45 0 45 0 0 -45z m100 0 l0 -45 -45 0
-45 0 0 45 0 45 45 0 45 0 0 -45z m100 0 l0 -45 -45 0 -45 0 0 45 0 45 45 0
45 0 0 -45z m100 0 l0 -45 -45 0 -45 0 0 45 0 45 45 0 45 0 0 -45z m100 0 l0
-45 -45 0 -45 0 0 45 0 45 45 0 45 0 0 -45z m50 25 c0 -13 -7 -20 -20 -20 -13
0 -20 7 -20 20 0 13 7 20 20 20 13 0 20 -7 20 -20z m50 0 c0 -13 -7 -20 -20
-20 -13 0 -20 7 -20 20 0 13 7 20 20 20 13 0 20 -7 20 -20z m100 -25 l0 -45
-45 0 -45 0 0 45 0 45 45 0 45 0 0 -45z m100 0 l0 -45 -45 0 -45 0 0 45 0 45
45 0 45 0 0 -45z m1250 25 c0 -13 -7 -20 -20 -20 -13 0 -20 7 -20 20 0 13 7
20 20 20 13 0 20 -7 20 -20z m650 -25 l0 -45 -45 0 -45 0 0 45 0 45 45 0 45 0
0 -45z m100 0 l0 -45 -45 0 -45 0 0 45 0 45 45 0 45 0 0 -45z m300 0 l0 -45
-45 0 -45 0 0 45 0 45 45 0 45 0 0 -45z m50 25 c0 -13 -7 -20 -20 -20 -13 0
-20 7 -20 20 0 13 7 20 20 20 13 0 20 -7 20 -20z m50 0 c0 -13 -7 -20 -20 -20
-13 0 -20 7 -20 20 0 13 7 20 20 20 13 0 20 -7 20 -20z m100 -25 l0 -45 -45 0
-45 0 0 45 0 45 45 0 45 0 0 -45z m50 25 c0 -13 -7 -20 -20 -20 -13 0 -20 7
-20 20 0 13 7 20 20 20 13 0 20 -7 20 -20z m50 0 c0 -13 -7 -20 -20 -20 -13 0
-20 7 -20 20 0 13 7 20 20 20 13 0 20 -7 20 -20z m100 -25 l0 -45 -45 0 -45 0
0 45 0 45 45 0 45 0 0 -45z m650 25 c0 -13 -7 -20 -20 -20 -13 0 -20 7 -20 20
0 13 7 20 20 20 13 0 20 -7 20 -20z m50 0 c0 -13 -7 -20 -20 -20 -13 0 -20 7
-20 20 0 13 7 20 20 20 13 0 20 -7 20 -20z m100 -25 l0 -45 -45 0 -45 0 0 45
0 45 45 0 45 0 0 -45z m100 0 l0 -45 -45 0 -45 0 0 45 0 45 45 0 45 0 0 -45z
m50 25 c0 -13 -7 -20 -20 -20 -13 0 -20 7 -20 20 0 13 7 20 20 20 13 0 20 -7
20 -20z m50 0 c0 -13 -7 -20 -20 -20 -13 0 -20 7 -20 20 0 13 7 20 20 20 13 0
20 -7 20 -20z m100 -25 l0 -45 -45 0 -45 0 0 45 0 45 45 0 45 0 0 -45z m100 0
l0 -45 -45 0 -45 0 0 45 0 45 45 0 45 0 0 -45z m-4950 -25 c0 -13 -7 -20 -20
-20 -13 0 -20 7 -20 20 0 13 7 20 20 20 13 0 20 -7 20 -20z m50 0 c0 -13 -7
-20 -20 -20 -13 0 -20 7 -20 20 0 13 7 20 20 20 13 0 20 -7 20 -20z m750 0 c0
-13 -7 -20 -20 -20 -13 0 -20 7 -20 20 0 13 7 20 20 20 13 0 20 -7 20 -20z
m50 0 c0 -13 -7 -20 -20 -20 -13 0 -20 7 -20 20 0 13 7 20 20 20 13 0 20 -7
20 -20z m2550 0 c0 -13 -7 -20 -20 -20 -13 0 -20 7 -20 20 0 13 7 20 20 20 13
0 20 -7 20 -20z m50 0 c0 -13 -7 -20 -20 -20 -13 0 -20 7 -20 20 0 13 7 20 20
20 13 0 20 -7 20 -20z m150 0 c0 -13 -7 -20 -20 -20 -13 0 -20 7 -20 20 0 13
7 20 20 20 13 0 20 -7 20 -20z m50 0 c0 -13 -7 -20 -20 -20 -13 0 -20 7 -20
20 0 13 7 20 20 20 13 0 20 -7 20 -20z m750 0 c0 -13 -7 -20 -20 -20 -13 0
-20 7 -20 20 0 13 7 20 20 20 13 0 20 -7 20 -20z m50 0 c0 -13 -7 -20 -20 -20
-13 0 -20 7 -20 20 0 13 7 20 20 20 13 0 20 -7 20 -20z m250 0 c0 -13 -7 -20
-20 -20 -13 0 -20 7 -20 20 0 13 7 20 20 20 13 0 20 -7 20 -20z m50 0 c0 -13
-7 -20 -20 -20 -13 0 -20 7 -20 20 0 13 7 20 20 20 13 0 20 -7 20 -20z m-5400
-75 l0 -45 -45 0 -45 0 0 45 0 45 45 0 45 0 0 -45z m700 0 l0 -45 -45 0 -45 0
0 45 0 45 45 0 45 0 0 -45z m100 0 l0 -45 -45 0 -45 0 0 45 0 45 45 0 45 0 0
-45z m100 0 l0 -45 -45 0 -45 0 0 45 0 45 45 0 45 0 0 -45z m100 0 l0 -45 -45
0 -45 0 0 45 0 45 45 0 45 0 0 -45z m100 0 l0 -45 -45 0 -45 0 0 45 0 45 45 0
45 0 0 -45z m100 0 l0 -45 -45 0 -45 0 0 45 0 45 45 0 45 0 0 -45z m50 25 c0
-13 -7 -20 -20 -20 -13 0 -20 7 -20 20 0 13 7 20 20 20 13 0 20 -7 20 -20z
m50 0 c0 -13 -7 -20 -20 -20 -13 0 -20 7 -20 20 0 13 7 20 20 20 13 0 20 -7
20 -20z m50 0 c0 -13 -7 -20 -20 -20 -13 0 -20 7 -20 20 0 13 7 20 20 20 13 0
20 -7 20 -20z m50 0 c0 -13 -7 -20 -20 -20 -13 0 -20 7 -20 20 0 13 7 20 20
20 13 0 20 -7 20 -20z m100 -25 l0 -45 -45 0 -45 0 0 45 0 45 45 0 45 0 0 -45z
m100 0 l0 -45 -45 0 -45 0 0 45 0 45 45 0 45 0 0 -45z m100 25 c0 -13 -7 -20
-20 -20 -13 0 -20 7 -20 20 0 13 7 20 20 20 13 0 20 -7 20 -20z m100 0 c0 -13
-7 -20 -20 -20 -13 0 -20 7 -20 20 0 13 7 20 20 20 13 0 20 -7 20 -20z m2200
-25 l0 -45 -45 0 -45 0 0 45 0 45 45 0 45 0 0 -45z m100 0 l0 -45 -45 0 -45 0
0 45 0 45 45 0 45 0 0 -45z m100 0 l0 -45 -45 0 -45 0 0 45 0 45 45 0 45 0 0
-45z m100 0 l0 -45 -45 0 -45 0 0 45 0 45 45 0 45 0 0 -45z m100 0 l0 -45 -45
0 -45 0 0 45 0 45 45 0 45 0 0 -45z m50 25 c0 -13 -7 -20 -20 -20 -13 0 -20 7
-20 20 0 13 7 20 20 20 13 0 20 -7 20 -20z m50 0 c0 -13 -7 -20 -20 -20 -13 0
-20 7 -20 20 0 13 7 20 20 20 13 0 20 -7 20 -20z m100 -25 l0 -45 -45 0 -45 0
0 45 0 45 45 0 45 0 0 -45z m200 -50 l0 -95 -95 0 -95 0 0 95 0 95 95 0 95 0
0 -95z m100 50 l0 -45 -45 0 -45 0 0 45 0 45 45 0 45 0 0 -45z m100 0 l0 -45
-45 0 -45 0 0 45 0 45 45 0 45 0 0 -45z m50 25 c0 -13 -7 -20 -20 -20 -13 0
-20 7 -20 20 0 13 7 20 20 20 13 0 20 -7 20 -20z m50 0 c0 -13 -7 -20 -20 -20
-13 0 -20 7 -20 20 0 13 7 20 20 20 13 0 20 -7 20 -20z m100 -25 l0 -45 -45 0
-45 0 0 45 0 45 45 0 45 0 0 -45z m100 0 l0 -45 -45 0 -45 0 0 45 0 45 45 0
45 0 0 -45z m100 0 l0 -45 -45 0 -45 0 0 45 0 45 45 0 45 0 0 -45z m50 25 c0
-13 -7 -20 -20 -20 -13 0 -20 7 -20 20 0 13 7 20 20 20 13 0 20 -7 20 -20z
m50 0 c0 -13 -7 -20 -20 -20 -13 0 -20 7 -20 20 0 13 7 20 20 20 13 0 20 -7
20 -20z m100 -25 l0 -45 -45 0 -45 0 0 45 0 45 45 0 45 0 0 -45z m200 -50 l0
-95 -95 0 -95 0 0 95 0 95 95 0 95 0 0 -95z m-4150 65 c0 -5 -4 -10 -10 -10
-5 0 -10 5 -10 10 0 6 5 10 10 10 6 0 10 -4 10 -10z m-400 -65 c0 -38 -3 -45
-20 -45 -17 0 -20 7 -20 45 0 38 3 45 20 45 17 0 20 -7 20 -45z m50 25 c0 -13
-7 -20 -20 -20 -13 0 -20 7 -20 20 0 13 7 20 20 20 13 0 20 -7 20 -20z m50 0
c0 -13 -7 -20 -20 -20 -13 0 -20 7 -20 20 0 13 7 20 20 20 13 0 20 -7 20 -20z
m50 0 c0 -13 -7 -20 -20 -20 -13 0 -20 7 -20 20 0 13 7 20 20 20 13 0 20 -7
20 -20z m250 0 c0 -13 -7 -20 -20 -20 -13 0 -20 7 -20 20 0 13 7 20 20 20 13
0 20 -7 20 -20z m50 0 c0 -13 -7 -20 -20 -20 -13 0 -20 7 -20 20 0 13 7 20 20
20 13 0 20 -7 20 -20z m100 0 c0 -13 -7 -20 -20 -20 -13 0 -20 7 -20 20 0 13
7 20 20 20 13 0 20 -7 20 -20z m1250 0 c0 -13 -7 -20 -20 -20 -13 0 -20 7 -20
20 0 13 7 20 20 20 13 0 20 -7 20 -20z m1400 0 c0 -13 -7 -20 -20 -20 -13 0
-20 7 -20 20 0 13 7 20 20 20 13 0 20 -7 20 -20z m50 0 c0 -13 -7 -20 -20 -20
-13 0 -20 7 -20 20 0 13 7 20 20 20 13 0 20 -7 20 -20z m550 0 c0 -13 -7 -20
-20 -20 -13 0 -20 7 -20 20 0 13 7 20 20 20 13 0 20 -7 20 -20z m50 0 c0 -13
-7 -20 -20 -20 -13 0 -20 7 -20 20 0 13 7 20 20 20 13 0 20 -7 20 -20z m350 0
c0 -13 -7 -20 -20 -20 -13 0 -20 7 -20 20 0 13 7 20 20 20 13 0 20 -7 20 -20z
m50 0 c0 -13 -7 -20 -20 -20 -13 0 -20 7 -20 20 0 13 7 20 20 20 13 0 20 -7
20 -20z m-5500 -75 l0 -45 -45 0 -45 0 0 45 0 45 45 0 45 0 0 -45z m700 0 l0
-45 -45 0 -45 0 0 45 0 45 45 0 45 0 0 -45z m100 0 c0 -41 -2 -45 -25 -45 -23
0 -25 -3 -25 -50 0 -43 -3 -50 -20 -50 -15 0 -20 7 -21 28 l-2 27 -4 -27 c-4
-26 -8 -28 -49 -28 l-44 0 0 45 0 45 50 0 50 0 0 50 0 50 45 0 45 0 0 -45z
m100 0 l0 -45 -45 0 -45 0 0 45 0 45 45 0 45 0 0 -45z m100 0 l0 -45 -45 0
-45 0 0 45 0 45 45 0 45 0 0 -45z m50 25 c0 -13 -7 -20 -20 -20 -13 0 -20 7
-20 20 0 13 7 20 20 20 13 0 20 -7 20 -20z m50 0 c0 -13 -7 -20 -20 -20 -13 0
-20 7 -20 20 0 13 7 20 20 20 13 0 20 -7 20 -20z m100 -25 l0 -45 -45 0 -45 0
0 45 0 45 45 0 45 0 0 -45z m100 25 c0 -13 -7 -20 -20 -20 -13 0 -20 7 -20 20
0 13 7 20 20 20 13 0 20 -7 20 -20z m101 -7 l2 -28 4 28 c3 19 10 27 24 27 16
0 19 -8 21 -52 l2 -53 3 53 c3 44 7 52 24 52 17 0 19 -8 19 -95 l0 -95 -45 0
-45 0 0 50 c0 47 -2 50 -25 50 -23 0 -25 4 -25 45 0 38 3 45 20 45 15 0 20 -7
21 -27z m149 7 c0 -13 -7 -20 -20 -20 -13 0 -20 7 -20 20 0 13 7 20 20 20 13
0 20 -7 20 -20z m50 0 c0 -13 -7 -20 -20 -20 -13 0 -20 7 -20 20 0 13 7 20 20
20 13 0 20 -7 20 -20z m100 -25 l0 -45 -45 0 -45 0 0 45 0 45 45 0 45 0 0 -45z
m50 25 c0 -13 -7 -20 -20 -20 -13 0 -20 7 -20 20 0 13 7 20 20 20 13 0 20 -7
20 -20z m50 0 c0 -13 -7 -20 -20 -20 -13 0 -20 7 -20 20 0 13 7 20 20 20 13 0
20 -7 20 -20z m2200 -25 l0 -45 -45 0 -45 0 0 45 0 45 45 0 45 0 0 -45z m100
0 l0 -45 -45 0 -45 0 0 45 0 45 45 0 45 0 0 -45z m100 0 l0 -45 -45 0 -45 0 0
45 0 45 45 0 45 0 0 -45z m100 0 l0 -45 -45 0 -45 0 0 45 0 45 45 0 45 0 0
-45z m100 0 l0 -45 -45 0 -45 0 0 45 0 45 45 0 45 0 0 -45z m50 25 c0 -13 -7
-20 -20 -20 -13 0 -20 7 -20 20 0 13 7 20 20 20 13 0 20 -7 20 -20z m50 0 c0
-13 -7 -20 -20 -20 -13 0 -20 7 -20 20 0 13 7 20 20 20 13 0 20 -7 20 -20z
m100 -25 l0 -45 -45 0 -45 0 0 45 0 45 45 0 45 0 0 -45z m300 0 l0 -45 -45 0
-45 0 0 45 0 45 45 0 45 0 0 -45z m100 0 l0 -45 -45 0 -45 0 0 45 0 45 45 0
45 0 0 -45z m100 0 l0 -45 -45 0 -45 0 0 45 0 45 45 0 45 0 0 -45z m100 0 l0
-45 -45 0 -45 0 0 45 0 45 45 0 45 0 0 -45z m100 0 l0 -45 -45 0 -45 0 0 45 0
45 45 0 45 0 0 -45z m100 0 l0 -45 -45 0 -45 0 0 45 0 45 45 0 45 0 0 -45z
m50 25 c0 -13 -7 -20 -20 -20 -13 0 -20 7 -20 20 0 13 7 20 20 20 13 0 20 -7
20 -20z m50 0 c0 -13 -7 -20 -20 -20 -13 0 -20 7 -20 20 0 13 7 20 20 20 13 0
20 -7 20 -20z m100 -25 l0 -45 -45 0 -45 0 0 45 0 45 45 0 45 0 0 -45z m-4250
15 c0 -5 -4 -10 -10 -10 -5 0 -10 5 -10 10 0 6 5 10 10 10 6 0 10 -4 10 -10z
m-300 -40 c0 -13 -7 -20 -20 -20 -13 0 -20 7 -20 20 0 13 7 20 20 20 13 0 20
-7 20 -20z m50 0 c0 -13 -7 -20 -20 -20 -13 0 -20 7 -20 20 0 13 7 20 20 20
13 0 20 -7 20 -20z m150 0 c0 -13 -7 -20 -20 -20 -13 0 -20 7 -20 20 0 13 7
20 20 20 13 0 20 -7 20 -20z m50 0 c0 -13 -7 -20 -20 -20 -13 0 -20 7 -20 20
0 13 7 20 20 20 13 0 20 -7 20 -20z m50 0 c0 -13 -7 -20 -20 -20 -13 0 -20 7
-20 20 0 13 7 20 20 20 13 0 20 -7 20 -20z m200 0 c0 -13 -7 -20 -20 -20 -13
0 -20 7 -20 20 0 13 7 20 20 20 13 0 20 -7 20 -20z m50 0 c0 -13 -7 -20 -20
-20 -13 0 -20 7 -20 20 0 13 7 20 20 20 13 0 20 -7 20 -20z m150 0 c0 -13 -7
-20 -20 -20 -13 0 -20 7 -20 20 0 13 7 20 20 20 13 0 20 -7 20 -20z m2700 0
c0 -13 -7 -20 -20 -20 -13 0 -20 7 -20 20 0 13 7 20 20 20 13 0 20 -7 20 -20z
m50 0 c0 -13 -7 -20 -20 -20 -13 0 -20 7 -20 20 0 13 7 20 20 20 13 0 20 -7
20 -20z m950 0 c0 -13 -7 -20 -20 -20 -13 0 -20 7 -20 20 0 13 7 20 20 20 13
0 20 -7 20 -20z m50 -10 c0 -5 -4 -10 -10 -10 -5 0 -10 5 -10 10 0 6 5 10 10
10 6 0 10 -4 10 -10z m-5300 -65 l0 -45 -45 0 -45 0 0 45 0 45 45 0 45 0 0
-45z m200 -50 l0 -95 -95 0 -95 0 0 95 0 95 95 0 95 0 0 -95z m200 50 l0 -45
-45 0 -45 0 0 45 0 45 45 0 45 0 0 -45z m200 25 c0 -13 -7 -20 -20 -20 -13 0
-20 7 -20 20 0 13 7 20 20 20 13 0 20 -7 20 -20z m100 -25 l0 -45 -45 0 -45 0
0 45 0 45 45 0 45 0 0 -45z m100 0 l0 -45 -45 0 -45 0 0 45 0 45 45 0 45 0 0
-45z m100 0 l0 -45 -45 0 -45 0 0 45 0 45 45 0 45 0 0 -45z m100 0 l0 -45 -45
0 -45 0 0 45 0 45 45 0 45 0 0 -45z m50 25 c0 -13 -7 -20 -20 -20 -13 0 -20 7
-20 20 0 13 7 20 20 20 13 0 20 -7 20 -20z m50 0 c0 -13 -7 -20 -20 -20 -13 0
-20 7 -20 20 0 13 7 20 20 20 13 0 20 -7 20 -20z m100 -25 l0 -45 -45 0 -45 0
0 45 0 45 45 0 45 0 0 -45z m150 25 c0 -13 -7 -20 -20 -20 -13 0 -20 7 -20 20
0 13 7 20 20 20 13 0 20 -7 20 -20z m50 0 c0 -13 -7 -20 -20 -20 -13 0 -20 7
-20 20 0 13 7 20 20 20 13 0 20 -7 20 -20z m50 0 c0 -13 -7 -20 -20 -20 -13 0
-20 7 -20 20 0 13 7 20 20 20 13 0 20 -7 20 -20z m50 0 c0 -13 -7 -20 -20 -20
-13 0 -20 7 -20 20 0 13 7 20 20 20 13 0 20 -7 20 -20z m50 0 c0 -13 -7 -20
-20 -20 -13 0 -20 7 -20 20 0 13 7 20 20 20 13 0 20 -7 20 -20z m1350 0 c0
-13 -7 -20 -20 -20 -13 0 -20 7 -20 20 0 13 7 20 20 20 13 0 20 -7 20 -20z
m900 -25 l0 -45 -45 0 -45 0 0 45 0 45 45 0 45 0 0 -45z m100 0 l0 -45 -45 0
-45 0 0 45 0 45 45 0 45 0 0 -45z m100 0 l0 -45 -45 0 -45 0 0 45 0 45 45 0
45 0 0 -45z m100 0 l0 -45 -45 0 -45 0 0 45 0 45 45 0 45 0 0 -45z m100 0 l0
-45 -45 0 -45 0 0 45 0 45 45 0 45 0 0 -45z m200 -50 l0 -95 -95 0 -95 0 0 95
0 95 95 0 95 0 0 -95z m100 50 l0 -45 -45 0 -45 0 0 45 0 45 45 0 45 0 0 -45z
m100 0 l0 -45 -45 0 -45 0 0 45 0 45 45 0 45 0 0 -45z m200 -50 l0 -95 -95 0
-95 0 0 95 0 95 95 0 95 0 0 -95z m100 50 l0 -45 -45 0 -45 0 0 45 0 45 45 0
45 0 0 -45z m50 25 c0 -13 -7 -20 -20 -20 -13 0 -20 7 -20 20 0 13 7 20 20 20
13 0 20 -7 20 -20z m50 0 c0 -13 -7 -20 -20 -20 -13 0 -20 7 -20 20 0 13 7 20
20 20 13 0 20 -7 20 -20z m100 -25 l0 -45 -45 0 -45 0 0 45 0 45 45 0 45 0 0
-45z m100 0 l0 -45 -45 0 -45 0 0 45 0 45 45 0 45 0 0 -45z m100 0 l0 -45 -45
0 -45 0 0 45 0 45 45 0 45 0 0 -45z m100 0 l0 -45 -45 0 -45 0 0 45 0 45 45 0
45 0 0 -45z m-5500 -25 c0 -13 -7 -20 -20 -20 -13 0 -20 7 -20 20 0 13 7 20
20 20 13 0 20 -7 20 -20z m350 0 c0 -13 -7 -20 -20 -20 -13 0 -20 7 -20 20 0
13 7 20 20 20 13 0 20 -7 20 -20z m50 0 c0 -13 -7 -20 -20 -20 -13 0 -20 7
-20 20 0 13 7 20 20 20 13 0 20 -7 20 -20z m300 0 c0 -13 -7 -20 -20 -20 -13
0 -20 7 -20 20 0 13 7 20 20 20 13 0 20 -7 20 -20z m450 0 c0 -13 -7 -20 -20
-20 -13 0 -20 7 -20 20 0 13 7 20 20 20 13 0 20 -7 20 -20z m50 0 c0 -13 -7
-20 -20 -20 -13 0 -20 7 -20 20 0 13 7 20 20 20 13 0 20 -7 20 -20z m300 0 c0
-13 -7 -20 -20 -20 -13 0 -20 7 -20 20 0 13 7 20 20 20 13 0 20 -7 20 -20z
m100 0 c0 -13 -7 -20 -20 -20 -13 0 -20 7 -20 20 0 13 7 20 20 20 13 0 20 -7
20 -20z m50 0 c0 -13 -7 -20 -20 -20 -13 0 -20 7 -20 20 0 13 7 20 20 20 13 0
20 -7 20 -20z m50 0 c0 -13 -7 -20 -20 -20 -13 0 -20 7 -20 20 0 13 7 20 20
20 13 0 20 -7 20 -20z m1050 0 c0 -13 -7 -20 -20 -20 -13 0 -20 7 -20 20 0 13
7 20 20 20 13 0 20 -7 20 -20z m50 0 c0 -13 -7 -20 -20 -20 -13 0 -20 7 -20
20 0 13 7 20 20 20 13 0 20 -7 20 -20z m150 0 c0 -13 -7 -20 -20 -20 -13 0
-20 7 -20 20 0 13 7 20 20 20 13 0 20 -7 20 -20z m850 0 c0 -13 -7 -20 -20
-20 -13 0 -20 7 -20 20 0 13 7 20 20 20 13 0 20 -7 20 -20z m1250 0 c0 -13 -7
-20 -20 -20 -13 0 -20 7 -20 20 0 13 7 20 20 20 13 0 20 -7 20 -20z m50 0 c0
-13 -7 -20 -20 -20 -13 0 -20 7 -20 20 0 13 7 20 20 20 13 0 20 -7 20 -20z
m-3650 -10 c0 -5 -4 -10 -10 -10 -5 0 -10 5 -10 10 0 6 5 10 10 10 6 0 10 -4
10 -10z m100 0 c0 -5 -4 -10 -10 -10 -5 0 -10 5 -10 10 0 6 5 10 10 10 6 0 10
-4 10 -10z m-1450 -65 l0 -45 -45 0 -45 0 0 45 0 45 45 0 45 0 0 -45z m300 0
l0 -45 -45 0 -45 0 0 45 0 45 45 0 45 0 0 -45z m100 0 l0 -45 -45 0 -45 0 0
45 0 45 45 0 45 0 0 -45z m100 0 l0 -45 -45 0 -45 0 0 45 0 45 45 0 45 0 0
-45z m100 0 l0 -45 -45 0 -45 0 0 45 0 45 45 0 45 0 0 -45z m100 0 l0 -45 -45
0 -45 0 0 45 0 45 45 0 45 0 0 -45z m100 0 l0 -45 -45 0 -45 0 0 45 0 45 45 0
45 0 0 -45z m100 0 l0 -45 -45 0 -45 0 0 45 0 45 45 0 45 0 0 -45z m100 0 l0
-45 -45 0 -45 0 0 45 0 45 45 0 45 0 0 -45z m100 0 l0 -45 -45 0 -45 0 0 45 0
45 45 0 45 0 0 -45z m100 0 l0 -45 -45 0 -45 0 0 45 0 45 45 0 45 0 0 -45z
m100 0 l0 -45 -45 0 -45 0 0 45 0 45 45 0 45 0 0 -45z m100 0 l0 -45 -45 0
-45 0 0 45 0 45 45 0 45 0 0 -45z m50 25 c0 -13 -7 -20 -20 -20 -13 0 -20 7
-20 20 0 13 7 20 20 20 13 0 20 -7 20 -20z m50 0 c0 -13 -7 -20 -20 -20 -13 0
-20 7 -20 20 0 13 7 20 20 20 13 0 20 -7 20 -20z m100 -25 l0 -45 -45 0 -45 0
0 45 0 45 45 0 45 0 0 -45z m1050 25 c0 -13 -7 -20 -20 -20 -13 0 -20 7 -20
20 0 13 7 20 20 20 13 0 20 -7 20 -20z m50 0 c0 -13 -7 -20 -20 -20 -13 0 -20
7 -20 20 0 13 7 20 20 20 13 0 20 -7 20 -20z m100 -25 l0 -45 -45 0 -45 0 0
45 0 45 45 0 45 0 0 -45z m50 25 c0 -13 -7 -20 -20 -20 -13 0 -20 7 -20 20 0
13 7 20 20 20 13 0 20 -7 20 -20z m850 -50 c0 -40 -4 -70 -10 -70 -5 0 -10 11
-10 25 0 22 -4 25 -35 25 -35 0 -35 0 -35 45 l0 45 45 0 45 0 0 -70z m100 25
l0 -45 -45 0 -45 0 0 45 0 45 45 0 45 0 0 -45z m50 25 c0 -13 -7 -20 -20 -20
-13 0 -20 7 -20 20 0 13 7 20 20 20 13 0 20 -7 20 -20z m50 0 c0 -13 -7 -20
-20 -20 -13 0 -20 7 -20 20 0 13 7 20 20 20 13 0 20 -7 20 -20z m100 -25 l0
-45 -45 0 -45 0 0 45 0 45 45 0 45 0 0 -45z m100 0 l0 -45 -45 0 -45 0 0 45 0
45 45 0 45 0 0 -45z m100 0 l0 -45 -45 0 -45 0 0 45 0 45 45 0 45 0 0 -45z
m300 0 l0 -45 -45 0 -45 0 0 45 0 45 45 0 45 0 0 -45z m100 0 l0 -45 -45 0
-45 0 0 45 0 45 45 0 45 0 0 -45z m300 0 l0 -45 -45 0 -45 0 0 45 0 45 45 0
45 0 0 -45z m100 0 l0 -45 -45 0 -45 0 0 45 0 45 45 0 45 0 0 -45z m50 25 c0
-13 -7 -20 -20 -20 -13 0 -20 7 -20 20 0 13 7 20 20 20 13 0 20 -7 20 -20z
m50 0 c0 -13 -7 -20 -20 -20 -13 0 -20 7 -20 20 0 13 7 20 20 20 13 0 20 -7
20 -20z m50 0 c0 -13 -7 -20 -20 -20 -13 0 -20 7 -20 20 0 13 7 20 20 20 13 0
20 -7 20 -20z m50 0 c0 -13 -7 -20 -20 -20 -13 0 -20 7 -20 20 0 13 7 20 20
20 13 0 20 -7 20 -20z m50 0 c0 -13 -7 -20 -20 -20 -13 0 -20 7 -20 20 0 13 7
20 20 20 13 0 20 -7 20 -20z m50 0 c0 -13 -7 -20 -20 -20 -13 0 -20 7 -20 20
0 13 7 20 20 20 13 0 20 -7 20 -20z m100 -25 l0 -45 -45 0 -45 0 0 45 0 45 45
0 45 0 0 -45z m-2800 15 c0 -5 -4 -10 -10 -10 -5 0 -10 5 -10 10 0 6 5 10 10
10 6 0 10 -4 10 -10z m-1150 -40 c0 -13 -7 -20 -20 -20 -13 0 -20 7 -20 20 0
13 7 20 20 20 13 0 20 -7 20 -20z m1000 0 c0 -13 -7 -20 -20 -20 -13 0 -20 7
-20 20 0 13 7 20 20 20 13 0 20 -7 20 -20z m200 0 c0 -13 -7 -20 -20 -20 -13
0 -20 7 -20 20 0 13 7 20 20 20 13 0 20 -7 20 -20z m50 0 c0 -13 -7 -20 -20
-20 -13 0 -20 7 -20 20 0 13 7 20 20 20 13 0 20 -7 20 -20z m1150 0 c0 -13 -7
-20 -20 -20 -13 0 -20 7 -20 20 0 13 7 20 20 20 13 0 20 -7 20 -20z m50 0 c0
-13 -7 -20 -20 -20 -13 0 -20 7 -20 20 0 13 7 20 20 20 13 0 20 -7 20 -20z
m1150 0 c0 -13 -7 -20 -20 -20 -13 0 -20 7 -20 20 0 13 7 20 20 20 13 0 20 -7
20 -20z m50 0 c0 -13 -7 -20 -20 -20 -13 0 -20 7 -20 20 0 13 7 20 20 20 13 0
20 -7 20 -20z m50 0 c0 -13 -7 -20 -20 -20 -13 0 -20 7 -20 20 0 13 7 20 20
20 13 0 20 -7 20 -20z m100 0 c0 -13 -7 -20 -20 -20 -13 0 -20 7 -20 20 0 13
7 20 20 20 13 0 20 -7 20 -20z m50 0 c0 -13 -7 -20 -20 -20 -13 0 -20 7 -20
20 0 13 7 20 20 20 13 0 20 -7 20 -20z m-3800 -10 c0 -5 -4 -10 -10 -10 -5 0
-10 5 -10 10 0 6 5 10 10 10 6 0 10 -4 10 -10z m3700 0 c0 -5 -4 -10 -10 -10
-5 0 -10 5 -10 10 0 6 5 10 10 10 6 0 10 -4 10 -10z m-5150 -40 c0 -13 -7 -20
-20 -20 -13 0 -20 7 -20 20 0 13 7 20 20 20 13 0 20 -7 20 -20z m50 0 c0 -13
-7 -20 -20 -20 -13 0 -20 7 -20 20 0 13 7 20 20 20 13 0 20 -7 20 -20z m100
-25 l0 -45 -45 0 -45 0 0 45 0 45 45 0 45 0 0 -45z m100 0 l0 -45 -45 0 -45 0
0 45 0 45 45 0 45 0 0 -45z m100 0 l0 -45 -45 0 -45 0 0 45 0 45 45 0 45 0 0
-45z m100 0 l0 -45 -45 0 -45 0 0 45 0 45 45 0 45 0 0 -45z m100 0 l0 -45 -45
0 -45 0 0 45 0 45 45 0 45 0 0 -45z m200 -50 l0 -95 -95 0 -95 0 0 95 0 95 95
0 95 0 0 -95z m200 0 l0 -95 -95 0 -95 0 0 95 0 95 95 0 95 0 0 -95z m100 50
l0 -45 -45 0 -45 0 0 45 0 45 45 0 45 0 0 -45z m100 0 l0 -45 -45 0 -45 0 0
45 0 45 45 0 45 0 0 -45z m200 -50 l0 -95 -95 0 -95 0 0 95 0 95 95 0 95 0 0
-95z m50 75 c0 -13 -7 -20 -20 -20 -13 0 -20 7 -20 20 0 13 7 20 20 20 13 0
20 -7 20 -20z m50 0 c0 -13 -7 -20 -20 -20 -13 0 -20 7 -20 20 0 13 7 20 20
20 13 0 20 -7 20 -20z m50 0 c0 -13 -7 -20 -20 -20 -13 0 -20 7 -20 20 0 13 7
20 20 20 13 0 20 -7 20 -20z m50 0 c0 -13 -7 -20 -20 -20 -13 0 -20 7 -20 20
0 13 7 20 20 20 13 0 20 -7 20 -20z m100 -25 l0 -45 -45 0 -45 0 0 45 0 45 45
0 45 0 0 -45z m1950 25 c0 -13 -7 -20 -20 -20 -13 0 -20 7 -20 20 0 13 7 20
20 20 13 0 20 -7 20 -20z m150 0 c0 -13 -7 -20 -20 -20 -13 0 -20 7 -20 20 0
13 7 20 20 20 13 0 20 -7 20 -20z m100 -25 l0 -45 -45 0 -45 0 0 45 0 45 45 0
45 0 0 -45z m100 0 l0 -45 -45 0 -45 0 0 45 0 45 45 0 45 0 0 -45z m100 0 l0
-45 -45 0 -45 0 0 45 0 45 45 0 45 0 0 -45z m100 0 l0 -45 -45 0 -45 0 0 45 0
45 45 0 45 0 0 -45z m200 -50 l0 -95 -95 0 -95 0 0 95 0 95 95 0 95 0 0 -95z
m100 50 l0 -45 -45 0 -45 0 0 45 0 45 45 0 45 0 0 -45z m100 25 c0 -13 -7 -20
-20 -20 -13 0 -20 7 -20 20 0 13 7 20 20 20 13 0 20 -7 20 -20z m100 -25 l0
-45 -45 0 -45 0 0 45 0 45 45 0 45 0 0 -45z m100 0 l0 -45 -45 0 -45 0 0 45 0
45 45 0 45 0 0 -45z m200 -50 l0 -95 -95 0 -95 0 0 95 0 95 95 0 95 0 0 -95z
m200 0 l0 -95 -95 0 -95 0 0 95 0 95 95 0 95 0 0 -95z m200 0 l0 -95 -95 0
-95 0 0 95 0 95 95 0 95 0 0 -95z m-850 65 c0 -5 -4 -10 -10 -10 -5 0 -10 5
-10 10 0 6 5 10 10 10 6 0 10 -4 10 -10z m-4500 -40 c0 -13 -7 -20 -20 -20
-13 0 -20 7 -20 20 0 13 7 20 20 20 13 0 20 -7 20 -20z m50 0 c0 -13 -7 -20
-20 -20 -13 0 -20 7 -20 20 0 13 7 20 20 20 13 0 20 -7 20 -20z m1350 0 c0
-13 -7 -20 -20 -20 -13 0 -20 7 -20 20 0 13 7 20 20 20 13 0 20 -7 20 -20z
m150 0 c0 -13 -7 -20 -20 -20 -13 0 -20 7 -20 20 0 13 7 20 20 20 13 0 20 -7
20 -20z m2050 0 c0 -13 -7 -20 -20 -20 -13 0 -20 7 -20 20 0 13 7 20 20 20 13
0 20 -7 20 -20z m50 0 c0 -13 -7 -20 -20 -20 -13 0 -20 7 -20 20 0 13 7 20 20
20 13 0 20 -7 20 -20z m50 0 c0 -13 -7 -20 -20 -20 -13 0 -20 7 -20 20 0 13 7
20 20 20 13 0 20 -7 20 -20z m50 0 c0 -13 -7 -20 -20 -20 -13 0 -20 7 -20 20
0 13 7 20 20 20 13 0 20 -7 20 -20z m750 0 c0 -13 -7 -20 -20 -20 -13 0 -20 7
-20 20 0 13 7 20 20 20 13 0 20 -7 20 -20z m50 0 c0 -13 -7 -20 -20 -20 -13 0
-20 7 -20 20 0 13 7 20 20 20 13 0 20 -7 20 -20z m-4500 -75 l0 -45 -45 0 -45
0 0 45 0 45 45 0 45 0 0 -45z m100 0 l0 -45 -45 0 -45 0 0 45 0 45 45 0 45 0
0 -45z m100 0 l0 -45 -45 0 -45 0 0 45 0 45 45 0 45 0 0 -45z m100 0 l0 -45
-45 0 -45 0 0 45 0 45 45 0 45 0 0 -45z m100 0 l0 -45 -45 0 -45 0 0 45 0 45
45 0 45 0 0 -45z m100 0 l0 -45 -45 0 -45 0 0 45 0 45 45 0 45 0 0 -45z m500
0 l0 -45 -45 0 -45 0 0 45 0 45 45 0 45 0 0 -45z m100 0 l0 -45 -45 0 -45 0 0
45 0 45 45 0 45 0 0 -45z m250 25 c0 -13 -7 -20 -20 -20 -13 0 -20 7 -20 20 0
13 7 20 20 20 13 0 20 -7 20 -20z m250 -25 l0 -45 -45 0 -45 0 0 45 0 45 45 0
45 0 0 -45z m1200 25 c0 -13 -7 -20 -20 -20 -13 0 -20 7 -20 20 0 13 7 20 20
20 13 0 20 -7 20 -20z m700 -25 l0 -45 -45 0 -45 0 0 45 0 45 45 0 45 0 0 -45z
m200 0 l0 -45 -45 0 -45 0 0 45 0 45 45 0 45 0 0 -45z m100 0 l0 -45 -45 0
-45 0 0 45 0 45 45 0 45 0 0 -45z m100 0 l0 -45 -45 0 -45 0 0 45 0 45 45 0
45 0 0 -45z m100 0 l0 -45 -45 0 -45 0 0 45 0 45 45 0 45 0 0 -45z m100 0 l0
-45 -45 0 -45 0 0 45 0 45 45 0 45 0 0 -45z m300 0 l0 -45 -45 0 -45 0 0 45 0
45 45 0 45 0 0 -45z m100 0 l0 -45 -45 0 -45 0 0 45 0 45 45 0 45 0 0 -45z
m100 0 l0 -45 -45 0 -45 0 0 45 0 45 45 0 45 0 0 -45z m100 0 l0 -45 -45 0
-45 0 0 45 0 45 45 0 45 0 0 -45z m-2900 -25 c0 -13 -7 -20 -20 -20 -13 0 -20
7 -20 20 0 13 7 20 20 20 13 0 20 -7 20 -20z m750 0 c0 -13 -7 -20 -20 -20
-13 0 -20 7 -20 20 0 13 7 20 20 20 13 0 20 -7 20 -20z m50 0 c0 -13 -7 -20
-20 -20 -13 0 -20 7 -20 20 0 13 7 20 20 20 13 0 20 -7 20 -20z m150 0 c0 -13
-7 -20 -20 -20 -13 0 -20 7 -20 20 0 13 7 20 20 20 13 0 20 -7 20 -20z m-250
-10 c0 -5 -4 -10 -10 -10 -5 0 -10 5 -10 10 0 6 5 10 10 10 6 0 10 -4 10 -10z
m-2500 -65 l0 -45 -45 0 -45 0 0 45 0 45 45 0 45 0 0 -45z m100 0 l0 -45 -45
0 -45 0 0 45 0 45 45 0 45 0 0 -45z m200 -50 l0 -95 -95 0 -95 0 0 95 0 95 95
0 95 0 0 -95z m200 0 l0 -95 -95 0 -95 0 0 95 0 95 95 0 95 0 0 -95z m202 -57
c1 -84 3 -129 5 -100 l4 52 45 0 44 0 2 -102 c1 -57 3 -79 5 -50 l4 52 44 0
44 0 4 -52 c2 -29 4 -7 5 50 l2 102 95 0 95 0 2 -102 c1 -57 3 -79 5 -50 l4
52 45 0 44 0 0 -95 0 -95 -50 0 -50 0 0 -50 0 -50 -50 0 c-47 0 -50 -2 -50
-25 0 -20 -5 -25 -25 -25 -20 0 -25 -5 -25 -25 l0 -25 -120 0 -120 0 0 50 0
50 -100 0 -100 0 0 100 0 100 -50 0 -50 0 0 45 0 45 48 2 47 2 -47 3 -48 4 0
45 0 44 50 0 50 0 0 100 0 100 95 0 95 0 2 -152z m198 57 l0 -95 -95 0 -95 0
0 95 0 95 95 0 95 0 0 -95z m200 50 l0 -45 -45 0 -45 0 0 45 0 45 45 0 45 0 0
-45z m200 -50 l0 -95 -95 0 -95 0 0 95 0 95 95 0 95 0 0 -95z m100 75 c0 -13
-7 -20 -20 -20 -13 0 -20 7 -20 20 0 13 7 20 20 20 13 0 20 -7 20 -20z m1100
0 c0 -13 -7 -20 -20 -20 -13 0 -20 7 -20 20 0 13 7 20 20 20 13 0 20 -7 20
-20z m900 -25 l0 -45 -45 0 -45 0 0 45 0 45 45 0 45 0 0 -45z m400 0 l0 -45
-45 0 -45 0 0 45 0 45 45 0 45 0 0 -45z m100 0 l0 -45 -45 0 -45 0 0 45 0 45
45 0 45 0 0 -45z m200 -50 l0 -95 -95 0 -95 0 0 95 0 95 95 0 95 0 0 -95z
m200 0 l0 -95 -95 0 -95 0 0 95 0 95 95 0 95 0 0 -95z m100 50 l0 -45 -45 0
-45 0 0 45 0 45 45 0 45 0 0 -45z m100 0 l0 -45 -45 0 -45 0 0 45 0 45 45 0
45 0 0 -45z m100 0 l0 -45 -45 0 -45 0 0 45 0 45 45 0 45 0 0 -45z m100 0 l0
-45 -45 0 -45 0 0 45 0 45 45 0 45 0 0 -45z m100 0 l0 -45 -45 0 -45 0 0 45 0
45 45 0 45 0 0 -45z m100 0 l0 -45 -45 0 -45 0 0 45 0 45 45 0 45 0 0 -45z
m200 -50 l0 -95 -95 0 -95 0 0 95 0 95 95 0 95 0 0 -95z m100 50 l0 -45 -45 0
-45 0 0 45 0 45 45 0 45 0 0 -45z m100 0 l0 -45 -45 0 -45 0 0 45 0 45 45 0
45 0 0 -45z m-2850 15 c0 -5 -4 -10 -10 -10 -5 0 -10 5 -10 10 0 6 5 10 10 10
6 0 10 -4 10 -10z m-1050 -40 c0 -13 -7 -20 -20 -20 -13 0 -20 7 -20 20 0 13
7 20 20 20 13 0 20 -7 20 -20z m1050 0 c0 -13 -7 -20 -20 -20 -13 0 -20 7 -20
20 0 13 7 20 20 20 13 0 20 -7 20 -20z m-50 -10 c0 -5 -4 -10 -10 -10 -5 0
-10 5 -10 10 0 6 5 10 10 10 6 0 10 -4 10 -10z m-2400 -65 l0 -45 -45 0 -45 0
0 45 0 45 45 0 45 0 0 -45z m100 0 l0 -45 -45 0 -45 0 0 45 0 45 45 0 45 0 0
-45z m900 0 l0 -45 -45 0 -45 0 0 45 0 45 45 0 45 0 0 -45z m100 0 l0 -45 -45
0 -45 0 0 45 0 45 45 0 45 0 0 -45z m1350 25 c0 -13 -7 -20 -20 -20 -13 0 -20
7 -20 20 0 13 7 20 20 20 13 0 20 -7 20 -20z m1450 -25 l0 -45 -45 0 -45 0 0
45 0 45 45 0 45 0 0 -45z m500 0 l0 -45 -45 0 -45 0 0 45 0 45 45 0 45 0 0
-45z m100 0 l0 -45 -45 0 -45 0 0 45 0 45 45 0 45 0 0 -45z m100 0 l0 -45 -45
0 -45 0 0 45 0 45 45 0 45 0 0 -45z m100 0 l0 -45 -45 0 -45 0 0 45 0 45 45 0
45 0 0 -45z m100 0 l0 -45 -45 0 -45 0 0 45 0 45 45 0 45 0 0 -45z m100 0 l0
-45 -45 0 -45 0 0 45 0 45 45 0 45 0 0 -45z m300 0 l0 -45 -45 0 -45 0 0 45 0
45 45 0 45 0 0 -45z m100 0 l0 -45 -45 0 -45 0 0 45 0 45 45 0 45 0 0 -45z
m-2700 -25 c0 -13 -7 -20 -20 -20 -13 0 -20 7 -20 20 0 13 7 20 20 20 13 0 20
-7 20 -20z m-2500 -75 l0 -45 -45 0 -45 0 0 45 0 45 45 0 45 0 0 -45z m100 0
l0 -45 -45 0 -45 0 0 45 0 45 45 0 45 0 0 -45z m100 0 l0 -45 -45 0 -45 0 0
45 0 45 45 0 45 0 0 -45z m100 0 l0 -45 -45 0 -45 0 0 45 0 45 45 0 45 0 0
-45z m500 0 l0 -45 -45 0 -45 0 0 45 0 45 45 0 45 0 0 -45z m250 25 c0 -13 -7
-20 -20 -20 -13 0 -20 7 -20 20 0 13 7 20 20 20 13 0 20 -7 20 -20z m350 -25
l0 -45 -45 0 -45 0 0 45 0 45 45 0 45 0 0 -45z m1200 -50 l0 -95 -95 0 -95 0
0 95 0 95 95 0 95 0 0 -95z m100 50 l0 -45 -45 0 -45 0 0 45 0 45 45 0 45 0 0
-45z m450 25 c0 -13 -7 -20 -20 -20 -13 0 -20 7 -20 20 0 13 7 20 20 20 13 0
20 -7 20 -20z m850 -75 l0 -95 -95 0 -95 0 0 95 0 95 95 0 95 0 0 -95z m100
50 l0 -45 -45 0 -45 0 0 45 0 45 45 0 45 0 0 -45z m100 0 l0 -45 -45 0 -45 0
0 45 0 45 45 0 45 0 0 -45z m100 0 l0 -45 -45 0 -45 0 0 45 0 45 45 0 45 0 0
-45z m100 0 l0 -45 -45 0 -45 0 0 45 0 45 45 0 45 0 0 -45z m50 25 c0 -13 -7
-20 -20 -20 -13 0 -20 7 -20 20 0 13 7 20 20 20 13 0 20 -7 20 -20z m50 0 c0
-13 -7 -20 -20 -20 -13 0 -20 7 -20 20 0 13 7 20 20 20 13 0 20 -7 20 -20z
m100 -25 l0 -45 -45 0 -45 0 0 45 0 45 45 0 45 0 0 -45z m100 0 l0 -45 -45 0
-45 0 0 45 0 45 45 0 45 0 0 -45z m100 0 l0 -45 -45 0 -45 0 0 45 0 45 45 0
45 0 0 -45z m200 -50 l0 -95 -95 0 -95 0 0 95 0 95 95 0 95 0 0 -95z m200 0
l0 -95 -95 0 -95 0 0 95 0 95 95 0 95 0 0 -95z m100 50 l0 -45 -45 0 -45 0 0
45 0 45 45 0 45 0 0 -45z m100 0 l0 -45 -45 0 -45 0 0 45 0 45 45 0 45 0 0
-45z m-4350 -25 c0 -13 -7 -20 -20 -20 -13 0 -20 7 -20 20 0 13 7 20 20 20 13
0 20 -7 20 -20z m3400 0 c0 -13 -7 -20 -20 -20 -13 0 -20 7 -20 20 0 13 7 20
20 20 13 0 20 -7 20 -20z m50 0 c0 -13 -7 -20 -20 -20 -13 0 -20 7 -20 20 0
13 7 20 20 20 13 0 20 -7 20 -20z m-4500 -75 l0 -45 -45 0 -45 0 0 45 0 45 45
0 45 0 0 -45z m50 25 c0 -13 -7 -20 -20 -20 -13 0 -20 7 -20 20 0 13 7 20 20
20 13 0 20 -7 20 -20z m50 0 c0 -13 -7 -20 -20 -20 -13 0 -20 7 -20 20 0 13 7
20 20 20 13 0 20 -7 20 -20z m100 -25 l0 -45 -45 0 -45 0 0 45 0 45 45 0 45 0
0 -45z m100 0 l0 -45 -45 0 -45 0 0 45 0 45 45 0 45 0 0 -45z m1000 0 l0 -45
-45 0 -45 0 0 45 0 45 45 0 45 0 0 -45z m100 0 l0 -45 -45 0 -45 0 0 45 0 45
45 0 45 0 0 -45z m1250 25 c0 -13 -7 -20 -20 -20 -13 0 -20 7 -20 20 0 13 7
20 20 20 13 0 20 -7 20 -20z m1450 -25 l0 -45 -45 0 -45 0 0 45 0 45 45 0 45
0 0 -45z m100 0 l0 -45 -45 0 -45 0 0 45 0 45 45 0 45 0 0 -45z m100 0 l0 -45
-45 0 -45 0 0 45 0 45 45 0 45 0 0 -45z m100 0 l0 -45 -45 0 -45 0 0 45 0 45
45 0 45 0 0 -45z m100 0 l0 -45 -45 0 -45 0 0 45 0 45 45 0 45 0 0 -45z m100
0 l0 -45 -45 0 -45 0 0 45 0 45 45 0 45 0 0 -45z m100 0 l0 -45 -45 0 -45 0 0
45 0 45 45 0 45 0 0 -45z m100 0 l0 -45 -45 0 -45 0 0 45 0 45 45 0 45 0 0
-45z m500 0 l0 -45 -45 0 -45 0 0 45 0 45 45 0 45 0 0 -45z m100 0 l0 -45 -45
0 -45 0 0 45 0 45 45 0 45 0 0 -45z m-5350 -25 c0 -13 -7 -20 -20 -20 -13 0
-20 7 -20 20 0 13 7 20 20 20 13 0 20 -7 20 -20z m50 0 c0 -13 -7 -20 -20 -20
-13 0 -20 7 -20 20 0 13 7 20 20 20 13 0 20 -7 20 -20z m1050 0 c0 -13 -7 -20
-20 -20 -13 0 -20 7 -20 20 0 13 7 20 20 20 13 0 20 -7 20 -20z m50 0 c0 -13
-7 -20 -20 -20 -13 0 -20 7 -20 20 0 13 7 20 20 20 13 0 20 -7 20 -20z m1450
0 c0 -13 -7 -20 -20 -20 -13 0 -20 7 -20 20 0 13 7 20 20 20 13 0 20 -7 20
-20z m-3250 -125 l0 -95 -95 0 -95 0 0 95 0 95 95 0 95 0 0 -95z m200 50 l0
-45 -45 0 -45 0 0 45 0 45 45 0 45 0 0 -45z m100 0 l0 -45 -45 0 -45 0 0 45 0
45 45 0 45 0 0 -45z m300 0 l0 -45 -45 0 -45 0 0 45 0 45 45 0 45 0 0 -45z
m200 -50 l0 -95 -95 0 -95 0 0 95 0 95 95 0 95 0 0 -95z m200 0 l0 -95 -95 0
-95 0 0 95 0 95 95 0 95 0 0 -95z m802 43 l2 -53 3 53 4 52 45 0 c41 0 44 -2
45 -27 l2 -28 4 28 c3 19 10 27 24 27 16 0 19 -7 19 -45 0 -41 -2 -45 -25 -45
l-25 0 0 -100 0 -100 -45 0 -45 0 0 50 0 50 -56 0 -57 0 6 68 c4 37 7 79 7 95
0 25 3 27 45 27 l45 0 2 -52z m1198 7 l0 -45 -45 0 -45 0 0 45 0 45 45 0 45 0
0 -45z m50 25 c0 -13 -7 -20 -20 -20 -13 0 -20 7 -20 20 0 13 7 20 20 20 13 0
20 -7 20 -20z m50 0 c0 -13 -7 -20 -20 -20 -13 0 -20 7 -20 20 0 13 7 20 20
20 13 0 20 -7 20 -20z m850 0 c0 -13 -7 -20 -20 -20 -13 0 -20 7 -20 20 0 13
7 20 20 20 13 0 20 -7 20 -20z m1650 -25 l0 -45 -45 0 -45 0 0 45 0 45 45 0
45 0 0 -45z m-2550 -25 c0 -13 -7 -20 -20 -20 -13 0 -20 7 -20 20 0 13 7 20
20 20 13 0 20 -7 20 -20z m900 0 c0 -13 -7 -20 -20 -20 -13 0 -20 7 -20 20 0
13 7 20 20 20 13 0 20 -7 20 -20z m-3550 -75 l0 -45 -45 0 -45 0 0 45 0 45 45
0 45 0 0 -45z m100 0 l0 -45 -45 0 -45 0 0 45 0 45 45 0 45 0 0 -45z m100 0
l0 -45 -45 0 -45 0 0 45 0 45 45 0 45 0 0 -45z m1400 0 l0 -45 -45 0 -45 0 0
45 0 45 45 0 45 0 0 -45z m1900 0 l0 -45 -45 0 -45 0 0 45 0 45 45 0 45 0 0
-45z m-3900 -150 l0 -95 -95 0 -95 0 0 95 0 95 95 0 95 0 0 -95z m600 50 l0
-45 -45 0 -45 0 0 45 0 45 45 0 45 0 0 -45z m100 0 l0 -45 -45 0 -45 0 0 45 0
45 45 0 45 0 0 -45z m100 0 l0 -45 -45 0 -45 0 0 45 0 45 45 0 45 0 0 -45z
m300 0 l0 -45 -45 0 -45 0 0 45 0 45 45 0 45 0 0 -45z m100 0 l0 -45 -45 0
-45 0 0 45 0 45 45 0 45 0 0 -45z m400 0 l0 -45 -45 0 -45 0 0 45 0 45 45 0
45 0 0 -45z m500 0 l0 -45 -45 0 -45 0 0 45 0 45 45 0 45 0 0 -45z m-600 -25
c0 -13 -7 -20 -20 -20 -13 0 -20 7 -20 20 0 13 7 20 20 20 13 0 20 -7 20 -20z
m-1000 -75 l0 -45 -45 0 -45 0 0 45 0 45 45 0 45 0 0 -45z m100 0 l0 -45 -45
0 -45 0 0 45 0 45 45 0 45 0 0 -45z m100 0 l0 -45 -45 0 -45 0 0 45 0 45 45 0
45 0 0 -45z m100 0 l0 -45 -45 0 -45 0 0 45 0 45 45 0 45 0 0 -45z m350 25 c0
-13 -7 -20 -20 -20 -13 0 -20 7 -20 20 0 13 7 20 20 20 13 0 20 -7 20 -20z
m50 0 c0 -13 -7 -20 -20 -20 -13 0 -20 7 -20 20 0 13 7 20 20 20 13 0 20 -7
20 -20z m100 -25 l0 -45 -45 0 -45 0 0 45 0 45 45 0 45 0 0 -45z m100 0 l0
-45 -45 0 -45 0 0 45 0 45 45 0 45 0 0 -45z m700 0 l0 -45 -45 0 -45 0 0 45 0
45 45 0 45 0 0 -45z m200 0 l0 -45 -45 0 -45 0 0 45 0 45 45 0 45 0 0 -45z
m-1100 -25 c0 -13 -7 -20 -20 -20 -13 0 -20 7 -20 20 0 13 7 20 20 20 13 0 20
-7 20 -20z m-1250 -50 c0 -13 -7 -20 -20 -20 -13 0 -20 7 -20 20 0 13 7 20 20
20 13 0 20 -7 20 -20z m50 0 c0 -13 -7 -20 -20 -20 -13 0 -20 7 -20 20 0 13 7
20 20 20 13 0 20 -7 20 -20z m100 -25 l0 -45 -45 0 -45 0 0 45 0 45 45 0 45 0
0 -45z m100 0 l0 -45 -45 0 -45 0 0 45 0 45 45 0 45 0 0 -45z m400 -50 l0 -95
-95 0 -95 0 0 95 0 95 95 0 95 0 0 -95z m802 43 l2 -53 3 53 4 52 45 0 44 0 0
-95 0 -95 -50 0 -50 0 0 -50 0 -50 -51 0 -51 0 4 50 3 50 -47 0 -48 0 0 95 0
95 95 0 95 0 2 -52z m400 0 l2 -53 3 53 4 52 45 0 44 0 0 -95 0 -95 -145 0
-145 0 0 95 0 95 95 0 95 0 2 -52z m198 7 l0 -45 -45 0 -45 0 0 45 0 45 45 0
45 0 0 -45z m200 -50 l0 -95 -95 0 -95 0 0 95 0 95 95 0 95 0 0 -95z m150 75
c0 -13 -7 -20 -20 -20 -13 0 -20 7 -20 20 0 13 7 20 20 20 13 0 20 -7 20 -20z
m-2400 -50 c0 -13 -7 -20 -20 -20 -13 0 -20 7 -20 20 0 13 7 20 20 20 13 0 20
-7 20 -20z m50 0 c0 -13 -7 -20 -20 -20 -13 0 -20 7 -20 20 0 13 7 20 20 20
13 0 20 -7 20 -20z m100 -75 l0 -45 -45 0 -45 0 0 45 0 45 45 0 45 0 0 -45z
m100 0 l0 -45 -45 0 -45 0 0 45 0 45 45 0 45 0 0 -45z m1400 0 l0 -45 -45 0
-45 0 0 45 0 45 45 0 45 0 0 -45z m400 0 l0 -45 -45 0 -45 0 0 45 0 45 45 0
45 0 0 -45z m-1800 -100 l0 -45 -45 0 -45 0 0 45 0 45 45 0 45 0 0 -45z m0
-100 l0 -45 -45 0 -45 0 0 45 0 45 45 0 45 0 0 -45z m3000 0 l0 -45 -45 0 -45
0 0 45 0 45 45 0 45 0 0 -45z m-2800 -150 l0 -95 -95 0 -95 0 0 95 0 95 95 0
95 0 0 -95z m1002 43 l2 -53 3 53 4 52 45 0 44 0 0 -95 0 -95 -145 0 -145 0 0
95 0 95 95 0 95 0 2 -52z m198 7 l0 -45 -45 0 -45 0 0 45 0 45 45 0 45 0 0
-45z m2300 0 l0 -45 -45 0 -45 0 0 45 0 45 45 0 45 0 0 -45z m-2300 -100 l0
-45 -45 0 -45 0 0 45 0 45 45 0 45 0 0 -45z m4000 0 l0 -45 -45 0 -45 0 0 45
0 45 45 0 45 0 0 -45z m100 0 l0 -45 -45 0 -45 0 0 45 0 45 45 0 45 0 0 -45z
m-3500 -100 l0 -45 -45 0 -45 0 0 45 0 45 45 0 45 0 0 -45z m1800 0 l0 -45
-45 0 -45 0 0 45 0 45 45 0 45 0 0 -45z m1600 0 l0 -45 -45 0 -45 0 0 45 0 45
45 0 45 0 0 -45z m-5650 -25 c0 -13 -7 -20 -20 -20 -13 0 -20 7 -20 20 0 13 7
20 20 20 13 0 20 -7 20 -20z m50 0 c0 -13 -7 -20 -20 -20 -13 0 -20 7 -20 20
0 13 7 20 20 20 13 0 20 -7 20 -20z"/>
<path d="M2431 3148 c2 -30 2 -30 6 -6 3 20 11 28 31 31 24 4 24 4 -5 6 -31 1
-33 -1 -32 -31z"/>
<path d="M2252 2400 c0 -19 2 -27 5 -17 2 9 2 25 0 35 -3 9 -5 1 -5 -18z"/>
<path d="M2981 1898 c2 -30 2 -30 6 -6 3 20 11 28 31 31 24 4 24 4 -5 6 -31 1
-33 -1 -32 -31z"/>
<path d="M3981 3098 c2 -31 2 -31 6 -5 3 18 10 27 23 27 13 0 20 -9 23 -27 l4
-28 2 27 c1 21 7 28 29 31 15 2 1 5 -30 6 l-58 1 1 -32z"/>
<path d="M380 5675 l0 -205 50 0 50 0 2 -102 c1 -57 3 -79 5 -50 l4 52 50 0
49 0 0 50 0 50 50 0 50 0 0 50 0 50 50 0 50 0 0 50 0 50 53 1 c28 1 40 4 25 6
-35 5 -39 40 -5 46 12 2 -2 5 -30 6 -50 1 -53 0 -53 -24 l0 -25 -145 0 -145 0
0 44 0 45 53 4 52 3 -52 2 -53 2 0 44 0 45 53 4 c28 2 4 4 -55 5 l-108 2 0
-205z m100 150 l0 -45 -45 0 -45 0 0 45 0 45 45 0 45 0 0 -45z m0 -100 l0 -45
-45 0 -45 0 0 45 0 45 45 0 45 0 0 -45z m350 -25 c0 -13 -7 -20 -20 -20 -13 0
-20 7 -20 20 0 13 7 20 20 20 13 0 20 -7 20 -20z m-350 -75 l0 -45 -45 0 -45
0 0 45 0 45 45 0 45 0 0 -45z m200 -50 l0 -95 -95 0 -95 0 0 95 0 95 95 0 95
0 0 -95z m100 50 l0 -45 -45 0 -45 0 0 45 0 45 45 0 45 0 0 -45z m-300 -100
l0 -45 -45 0 -45 0 0 45 0 45 45 0 45 0 0 -45z m50 -75 c0 -13 -7 -20 -20 -20
-13 0 -20 7 -20 20 0 13 7 20 20 20 13 0 20 -7 20 -20z m50 0 c0 -13 -7 -20
-20 -20 -13 0 -20 7 -20 20 0 13 7 20 20 20 13 0 20 -7 20 -20z m-50 -50 c0
-13 -7 -20 -20 -20 -13 0 -20 7 -20 20 0 13 7 20 20 20 13 0 20 -7 20 -20z
m50 0 c0 -13 -7 -20 -20 -20 -13 0 -20 7 -20 20 0 13 7 20 20 20 13 0 20 -7
20 -20z"/>
<path d="M682 5323 l2 -58 3 52 4 52 52 4 52 3 -57 2 -58 2 2 -57z"/>
<path d="M382 5023 l2 -58 3 52 4 52 52 4 52 3 -57 2 -58 2 2 -57z"/>
<path d="M443 4973 c9 -2 23 -2 30 0 6 3 -1 5 -18 5 -16 0 -22 -2 -12 -5z"/>
<path d="M1143 4423 c9 -2 23 -2 30 0 6 3 -1 5 -18 5 -16 0 -22 -2 -12 -5z"/>
<path d="M331 4028 c1 -29 4 -43 6 -30 3 14 12 22 24 22 18 0 19 -9 21 -127 1
-71 3 -105 5 -76 l4 52 52 4 52 3 -52 2 -53 2 0 44 0 45 53 4 52 3 -52 2 -53
2 0 44 0 45 53 4 c38 2 31 4 -30 5 l-83 2 1 -52z m49 22 c0 -13 -7 -20 -20
-20 -13 0 -20 7 -20 20 0 13 7 20 20 20 13 0 20 -7 20 -20z"/>
<path d="M333 3473 c32 -2 81 -2 110 0 29 2 3 3 -58 3 -60 0 -84 -1 -52 -3z"/>
<path d="M3331 248 c2 -30 2 -30 6 -6 3 20 11 28 31 31 24 4 24 4 -5 6 -31 1
-33 -1 -32 -31z"/>
<path d="M3182 128 l2 -53 3 47 4 47 52 4 52 3 -57 2 -58 2 2 -52z"/>
<path d="M3408 173 c18 -2 45 -2 60 0 15 2 0 4 -33 4 -33 0 -45 -2 -27 -4z"/>
<path d="M3281 103 c2 -24 2 -25 6 -5 3 13 12 22 23 22 11 0 20 -9 23 -22 l4
-23 2 23 c1 15 7 22 20 22 12 0 21 -8 24 -22 4 -20 4 -19 6 5 1 26 0 27 -54
27 -54 0 -55 -1 -54 -27z"/>
<path d="M3481 103 c2 -24 2 -25 6 -5 3 13 12 22 23 22 11 0 20 -9 23 -22 l4
-23 2 23 c1 15 7 22 20 22 12 0 21 -8 24 -22 l4 -23 2 23 c1 15 7 22 20 22 12
0 21 -8 24 -22 4 -23 4 -23 6 -1 1 14 9 23 24 26 12 2 -24 5 -80 6 l-103 1 1
-27z"/>
</g>
</svg>
